# 3ds Max Wavefront OBJ Exporter v0.97b - (c)2007 guruware
# File Created: 04.02.2013 02:02:19

#
# object bridge
#

v  0.15 0.94 0.50
v  0.07 -0.20 0.50
v  0.09 0.40 0.50
v  0.07 0.60 0.50
v  0.07 0.80 0.50
v  -0.50 0.94 -0.14
v  -0.20 0.94 0.20
v  -0.50 -0.20 -0.06
v  -0.24 -0.20 0.25
v  -0.50 0.40 -0.08
v  -0.29 0.40 0.29
v  -0.50 0.60 -0.07
v  -0.25 0.60 0.26
v  -0.50 0.80 -0.07
v  -0.24 0.80 0.25
v  -0.29 0.94 -0.01
v  0.03 0.94 0.25
v  -0.35 -0.20 0.15
v  -0.07 -0.20 0.37
v  -0.35 0.40 0.12
v  -0.07 0.40 0.35
v  -0.32 0.60 0.11
v  -0.06 0.60 0.42
v  -0.35 0.80 0.15
v  -0.07 0.80 0.37
v  0.33 1.00 0.50
v  -0.50 1.00 -0.33
v  -0.50 1.00 -0.50
v  0.02 0.00 0.50
v  0.11 0.18 0.50
v  -0.50 0.18 -0.11
v  -0.50 -0.00 -0.02
v  -0.30 0.00 0.30
v  -0.29 0.18 0.29
v  -0.38 0.00 0.18
v  -0.36 0.18 0.15
v  -0.18 -0.00 0.38
v  -0.12 0.18 0.37
v  -0.21 1.00 -0.21
v  -0.15 0.94 -0.50
v  -0.07 -0.20 -0.50
v  -0.09 0.40 -0.49
v  -0.07 0.60 -0.50
v  -0.07 0.80 -0.50
v  0.50 0.94 0.14
v  0.20 0.94 -0.20
v  0.50 -0.20 0.07
v  0.24 -0.20 -0.25
v  0.50 0.40 0.09
v  0.29 0.40 -0.29
v  0.50 0.60 0.07
v  0.25 0.60 -0.26
v  0.50 0.80 0.07
v  0.24 0.80 -0.25
v  0.29 0.94 0.01
v  -0.03 0.94 -0.25
v  0.35 -0.20 -0.15
v  0.07 -0.20 -0.37
v  0.35 0.40 -0.12
v  0.07 0.40 -0.35
v  0.32 0.60 -0.11
v  0.06 0.60 -0.42
v  0.35 0.80 -0.15
v  0.07 0.80 -0.37
v  -0.33 1.00 -0.50
v  0.50 1.00 0.33
v  -0.00 1.00 -0.00
v  0.21 1.00 0.21
v  0.50 1.00 0.50
v  -0.03 0.00 -0.50
v  -0.11 0.18 -0.50
v  0.50 0.18 0.11
v  0.50 -0.00 0.02
v  0.30 0.00 -0.30
v  0.29 0.18 -0.29
v  0.38 0.00 -0.18
v  0.36 0.18 -0.15
v  0.18 -0.00 -0.38
v  0.12 0.18 -0.37
# 79 vertices

vn -0.88 0.12 0.46
vn -0.86 0.10 0.49
vn -0.87 0.04 0.49
vn -0.87 0.04 0.49
vn -0.85 -0.03 0.53
vn -0.88 0.12 0.46
vn -0.54 -0.07 0.84
vn -0.43 0.18 0.88
vn -0.69 0.08 0.72
vn -0.69 0.08 0.72
vn -0.69 -0.13 0.71
vn -0.54 -0.07 0.84
vn -0.87 0.09 0.48
vn -0.84 0.00 0.55
vn -0.74 0.02 0.68
vn -0.74 0.02 0.68
vn -0.81 -0.06 0.58
vn -0.87 0.09 0.48
vn -0.52 -0.02 0.85
vn -0.59 -0.01 0.81
vn -0.73 0.04 0.68
vn -0.73 0.04 0.68
vn -0.67 0.13 0.73
vn -0.52 -0.02 0.85
vn -0.84 0.00 0.55
vn -0.71 0.33 0.62
vn -0.79 0.12 0.60
vn -0.79 0.12 0.60
vn -0.74 0.02 0.68
vn -0.84 0.00 0.55
vn -0.59 -0.01 0.81
vn -0.51 0.43 0.74
vn -0.64 0.32 0.70
vn -0.64 0.32 0.70
vn -0.73 0.04 0.68
vn -0.59 -0.01 0.81
vn -0.71 0.33 0.62
vn -0.31 0.89 0.34
vn -0.37 0.82 0.43
vn -0.37 0.82 0.43
vn -0.79 0.12 0.60
vn -0.71 0.33 0.62
vn -0.51 0.43 0.74
vn -0.27 0.81 0.52
vn -0.49 0.74 0.46
vn -0.49 0.74 0.46
vn -0.64 0.32 0.70
vn -0.51 0.43 0.74
vn -0.31 0.89 0.34
vn -0.49 0.74 0.46
vn 0.00 1.00 -0.00
vn 0.00 1.00 -0.00
vn 0.05 1.00 0.03
vn -0.31 0.89 0.34
vn -0.27 0.81 0.52
vn -0.54 0.80 0.27
vn -0.31 0.94 0.15
vn -0.31 0.94 0.15
vn -0.05 1.00 -0.03
vn -0.27 0.81 0.52
vn -0.69 0.08 0.72
vn -0.88 0.12 0.46
vn -0.85 -0.03 0.53
vn -0.85 -0.03 0.53
vn -0.69 -0.13 0.71
vn -0.69 0.08 0.72
vn -0.51 0.06 0.86
vn -0.55 0.15 0.82
vn -0.43 0.18 0.88
vn -0.43 0.18 0.88
vn -0.54 -0.07 0.84
vn -0.51 0.06 0.86
vn -0.67 0.13 0.73
vn -0.73 0.04 0.68
vn -0.84 0.00 0.55
vn -0.84 0.00 0.55
vn -0.87 0.09 0.48
vn -0.67 0.13 0.73
vn -0.66 -0.11 0.75
vn -0.55 0.02 0.83
vn -0.59 -0.01 0.81
vn -0.59 -0.01 0.81
vn -0.52 -0.02 0.85
vn -0.66 -0.11 0.75
vn -0.73 0.04 0.68
vn -0.64 0.32 0.70
vn -0.71 0.33 0.62
vn -0.71 0.33 0.62
vn -0.84 0.00 0.55
vn -0.73 0.04 0.68
vn -0.55 0.02 0.83
vn -0.72 0.35 0.60
vn -0.51 0.43 0.74
vn -0.51 0.43 0.74
vn -0.59 -0.01 0.81
vn -0.55 0.02 0.83
vn -0.64 0.32 0.70
vn -0.49 0.74 0.46
vn -0.31 0.89 0.34
vn -0.31 0.89 0.34
vn -0.71 0.33 0.62
vn -0.64 0.32 0.70
vn -0.72 0.35 0.60
vn -0.54 0.80 0.27
vn -0.27 0.81 0.52
vn -0.27 0.81 0.52
vn -0.51 0.43 0.74
vn -0.72 0.35 0.60
vn -0.15 0.95 0.28
vn -0.37 0.82 0.43
vn -0.31 0.89 0.34
vn -0.31 0.89 0.34
vn 0.05 1.00 0.03
vn -0.15 0.95 0.28
vn -0.05 1.00 -0.03
vn 0.00 1.00 -0.00
vn -0.49 0.74 0.46
vn -0.49 0.74 0.46
vn -0.27 0.81 0.52
vn -0.05 1.00 -0.03
vn 0.00 1.00 -0.00
vn 0.00 1.00 -0.00
vn 0.00 1.00 -0.00
vn 0.00 1.00 -0.00
vn 0.00 1.00 -0.00
vn 0.00 1.00 -0.00
vn -0.87 0.09 0.48
vn -0.81 -0.06 0.58
vn -0.86 0.10 0.49
vn -0.86 0.10 0.49
vn -0.88 0.12 0.46
vn -0.87 0.09 0.48
vn -0.84 -0.15 0.52
vn -0.76 -0.24 0.61
vn -0.85 -0.03 0.53
vn -0.85 -0.03 0.53
vn -0.87 0.04 0.49
vn -0.84 -0.15 0.52
vn -0.43 0.18 0.88
vn -0.52 -0.02 0.85
vn -0.67 0.13 0.73
vn -0.67 0.13 0.73
vn -0.69 0.08 0.72
vn -0.43 0.18 0.88
vn -0.69 -0.13 0.71
vn -0.57 -0.35 0.74
vn -0.60 -0.36 0.72
vn -0.60 -0.36 0.72
vn -0.54 -0.07 0.84
vn -0.69 -0.13 0.71
vn -0.67 0.13 0.73
vn -0.87 0.09 0.48
vn -0.88 0.12 0.46
vn -0.88 0.12 0.46
vn -0.69 0.08 0.72
vn -0.67 0.13 0.73
vn -0.76 -0.24 0.61
vn -0.57 -0.35 0.74
vn -0.69 -0.13 0.71
vn -0.69 -0.13 0.71
vn -0.85 -0.03 0.53
vn -0.76 -0.24 0.61
vn -0.55 0.15 0.82
vn -0.66 -0.11 0.75
vn -0.52 -0.02 0.85
vn -0.52 -0.02 0.85
vn -0.43 0.18 0.88
vn -0.55 0.15 0.82
vn -0.54 -0.07 0.84
vn -0.60 -0.36 0.72
vn -0.57 -0.26 0.78
vn -0.57 -0.26 0.78
vn -0.51 0.06 0.86
vn -0.54 -0.07 0.84
vn 0.88 0.12 -0.46
vn 0.87 0.12 -0.49
vn 0.86 0.04 -0.50
vn 0.86 0.04 -0.50
vn 0.84 -0.03 -0.54
vn 0.88 0.12 -0.46
vn 0.53 -0.07 -0.84
vn 0.42 0.17 -0.89
vn 0.69 0.08 -0.72
vn 0.69 0.08 -0.72
vn 0.69 -0.13 -0.71
vn 0.53 -0.07 -0.84
vn 0.87 0.10 -0.47
vn 0.84 -0.00 -0.54
vn 0.75 0.01 -0.66
vn 0.75 0.01 -0.66
vn 0.83 -0.04 -0.55
vn 0.87 0.10 -0.47
vn 0.51 -0.02 -0.86
vn 0.58 -0.01 -0.82
vn 0.73 0.04 -0.68
vn 0.73 0.04 -0.68
vn 0.67 0.13 -0.73
vn 0.51 -0.02 -0.86
vn 0.84 -0.00 -0.54
vn 0.71 0.33 -0.62
vn 0.80 0.12 -0.59
vn 0.80 0.12 -0.59
vn 0.75 0.01 -0.66
vn 0.84 -0.00 -0.54
vn 0.58 -0.01 -0.82
vn 0.51 0.43 -0.75
vn 0.64 0.32 -0.70
vn 0.64 0.32 -0.70
vn 0.73 0.04 -0.68
vn 0.58 -0.01 -0.82
vn 0.71 0.33 -0.62
vn 0.31 0.89 -0.34
vn 0.37 0.82 -0.43
vn 0.37 0.82 -0.43
vn 0.80 0.12 -0.59
vn 0.71 0.33 -0.62
vn 0.51 0.43 -0.75
vn 0.27 0.81 -0.52
vn 0.49 0.74 -0.46
vn 0.49 0.74 -0.46
vn 0.64 0.32 -0.70
vn 0.51 0.43 -0.75
vn 0.31 0.89 -0.34
vn 0.49 0.74 -0.46
vn 0.00 1.00 -0.00
vn 0.00 1.00 -0.00
vn -0.05 1.00 -0.03
vn 0.31 0.89 -0.34
vn 0.27 0.81 -0.52
vn 0.54 0.79 -0.28
vn 0.31 0.94 -0.15
vn 0.31 0.94 -0.15
vn 0.05 1.00 0.03
vn 0.27 0.81 -0.52
vn 0.69 0.08 -0.72
vn 0.88 0.12 -0.46
vn 0.84 -0.03 -0.54
vn 0.84 -0.03 -0.54
vn 0.69 -0.13 -0.71
vn 0.69 0.08 -0.72
vn 0.48 0.07 -0.87
vn 0.53 0.14 -0.83
vn 0.42 0.17 -0.89
vn 0.42 0.17 -0.89
vn 0.53 -0.07 -0.84
vn 0.48 0.07 -0.87
vn 0.67 0.13 -0.73
vn 0.73 0.04 -0.68
vn 0.84 -0.00 -0.54
vn 0.84 -0.00 -0.54
vn 0.87 0.10 -0.47
vn 0.67 0.13 -0.73
vn 0.64 -0.12 -0.76
vn 0.54 0.02 -0.84
vn 0.58 -0.01 -0.82
vn 0.58 -0.01 -0.82
vn 0.51 -0.02 -0.86
vn 0.64 -0.12 -0.76
vn 0.73 0.04 -0.68
vn 0.64 0.32 -0.70
vn 0.71 0.33 -0.62
vn 0.71 0.33 -0.62
vn 0.84 -0.00 -0.54
vn 0.73 0.04 -0.68
vn 0.54 0.02 -0.84
vn 0.71 0.34 -0.61
vn 0.51 0.43 -0.75
vn 0.51 0.43 -0.75
vn 0.58 -0.01 -0.82
vn 0.54 0.02 -0.84
vn 0.64 0.32 -0.70
vn 0.49 0.74 -0.46
vn 0.31 0.89 -0.34
vn 0.31 0.89 -0.34
vn 0.71 0.33 -0.62
vn 0.64 0.32 -0.70
vn 0.71 0.34 -0.61
vn 0.54 0.79 -0.28
vn 0.27 0.81 -0.52
vn 0.27 0.81 -0.52
vn 0.51 0.43 -0.75
vn 0.71 0.34 -0.61
vn 0.15 0.95 -0.28
vn 0.37 0.82 -0.43
vn 0.31 0.89 -0.34
vn 0.31 0.89 -0.34
vn -0.05 1.00 -0.03
vn 0.15 0.95 -0.28
vn 0.05 1.00 0.03
vn 0.00 1.00 -0.00
vn 0.49 0.74 -0.46
vn 0.49 0.74 -0.46
vn 0.27 0.81 -0.52
vn 0.05 1.00 0.03
vn 0.00 1.00 -0.00
vn 0.00 1.00 -0.00
vn 0.00 1.00 -0.00
vn 0.00 1.00 -0.00
vn 0.00 1.00 -0.00
vn 0.00 1.00 -0.00
vn 0.87 0.10 -0.47
vn 0.83 -0.04 -0.55
vn 0.87 0.12 -0.49
vn 0.87 0.12 -0.49
vn 0.88 0.12 -0.46
vn 0.87 0.10 -0.47
vn 0.83 -0.15 -0.53
vn 0.75 -0.24 -0.61
vn 0.84 -0.03 -0.54
vn 0.84 -0.03 -0.54
vn 0.86 0.04 -0.50
vn 0.83 -0.15 -0.53
vn 0.42 0.17 -0.89
vn 0.51 -0.02 -0.86
vn 0.67 0.13 -0.73
vn 0.67 0.13 -0.73
vn 0.69 0.08 -0.72
vn 0.42 0.17 -0.89
vn 0.69 -0.13 -0.71
vn 0.57 -0.35 -0.74
vn 0.60 -0.36 -0.72
vn 0.60 -0.36 -0.72
vn 0.53 -0.07 -0.84
vn 0.69 -0.13 -0.71
vn 0.67 0.13 -0.73
vn 0.87 0.10 -0.47
vn 0.88 0.12 -0.46
vn 0.88 0.12 -0.46
vn 0.69 0.08 -0.72
vn 0.67 0.13 -0.73
vn 0.75 -0.24 -0.61
vn 0.57 -0.35 -0.74
vn 0.69 -0.13 -0.71
vn 0.69 -0.13 -0.71
vn 0.84 -0.03 -0.54
vn 0.75 -0.24 -0.61
vn 0.53 0.14 -0.83
vn 0.64 -0.12 -0.76
vn 0.51 -0.02 -0.86
vn 0.51 -0.02 -0.86
vn 0.42 0.17 -0.89
vn 0.53 0.14 -0.83
vn 0.53 -0.07 -0.84
vn 0.60 -0.36 -0.72
vn 0.56 -0.23 -0.80
vn 0.56 -0.23 -0.80
vn 0.48 0.07 -0.87
vn 0.53 -0.07 -0.84
# 348 vertex normals

vt 0.12 0.32 0.00
vt 0.13 0.35 0.00
vt 0.00 0.61 0.00
vt 0.00 0.52 0.00
vt 0.32 0.12 0.00
vt 0.38 0.14 0.00
vt 0.21 0.21 0.00
vt 0.20 0.21 0.00
vt 0.00 0.59 0.00
vt 0.15 0.38 0.00
vt 0.17 0.40 0.00
vt 0.00 0.57 0.00
vt 0.21 0.22 0.00
vt 0.43 0.15 0.00
vt 0.43 0.08 0.00
vt 0.24 0.24 0.00
vt 0.15 0.35 0.00
vt 0.00 0.57 0.00
vt 0.43 0.13 0.00
vt 0.26 0.25 0.00
vt 0.21 0.51 0.00
vt 0.00 0.65 0.00
vt 0.53 0.25 0.00
vt 0.30 0.30 0.00
vt 0.50 0.50 0.00
vt 0.29 0.71 0.00
vt 0.65 0.00 0.00
vt 0.82 0.00 0.00
vt 0.70 0.30 0.00
vt 0.52 0.00 0.00
vt 0.61 0.00 0.00
vt 0.58 0.01 0.00
vt 0.57 0.00 0.00
vt 0.57 0.00 0.00
vt 0.00 0.83 0.00
vt 0.00 1.00 0.00
vt 1.00 0.00 0.00
vt 0.00 0.57 0.00
vt 0.15 0.35 0.00
vt 0.26 0.26 0.00
vt 0.43 0.13 0.00
vt 0.57 0.01 0.00
vt 0.87 0.68 0.00
vt 0.86 0.66 0.00
vt 1.00 0.39 0.00
vt 1.00 0.48 0.00
vt 0.67 0.88 0.00
vt 0.62 0.87 0.00
vt 0.79 0.79 0.00
vt 0.80 0.80 0.00
vt 0.99 0.41 0.00
vt 0.85 0.63 0.00
vt 0.82 0.61 0.00
vt 0.99 0.43 0.00
vt 0.78 0.79 0.00
vt 0.57 0.85 0.00
vt 0.56 0.92 0.00
vt 0.75 0.76 0.00
vt 0.85 0.65 0.00
vt 1.00 0.43 0.00
vt 0.57 0.87 0.00
vt 0.74 0.75 0.00
vt 0.78 0.49 0.00
vt 1.00 0.36 0.00
vt 0.47 0.75 0.00
vt 0.69 0.71 0.00
vt 0.34 1.00 0.00
vt 0.17 1.00 0.00
vt 0.47 1.00 0.00
vt 0.38 1.00 0.00
vt 0.41 0.99 0.00
vt 0.43 1.00 0.00
vt 0.43 1.00 0.00
vt 1.00 0.18 0.00
vt 1.00 0.43 0.00
vt 0.85 0.66 0.00
vt 0.74 0.75 0.00
vt 0.57 0.87 0.00
vt 0.43 1.00 0.00
# 79 texture coords

g bridge
f -44/-78/-348 -49/-77/-347 -48/-76/-346 
f -48/-76/-345 -45/-79/-344 -44/-78/-343 
f -43/-75/-342 -42/-74/-341 -46/-73/-340 
f -46/-73/-339 -47/-72/-338 -43/-75/-337 
f -60/-70/-336 -58/-69/-335 -68/-68/-334 
f -68/-68/-333 -70/-71/-332 -60/-70/-331 
f -59/-66/-330 -57/-65/-329 -67/-64/-328 
f -67/-64/-327 -69/-67/-326 -59/-66/-325 
f -58/-69/-324 -56/-63/-323 -66/-62/-322 
f -66/-62/-321 -68/-68/-320 -58/-69/-319 
f -57/-65/-318 -55/-61/-317 -65/-60/-316 
f -65/-60/-315 -67/-64/-314 -57/-65/-313 
f -56/-63/-312 -64/-59/-311 -74/-58/-310 
f -74/-58/-309 -66/-62/-308 -56/-63/-307 
f -55/-61/-306 -63/-57/-305 -73/-56/-304 
f -73/-56/-303 -65/-60/-302 -55/-61/-301 
f -64/-59/-300 -73/-56/-299 -13/-55/-298 
f -13/-55/-297 -41/-54/-296 -64/-59/-295 
f -63/-57/-294 -79/-53/-293 -54/-52/-292 
f -54/-52/-291 -12/-51/-290 -63/-57/-289 
f -46/-73/-288 -44/-78/-287 -45/-79/-286 
f -45/-79/-285 -47/-72/-284 -46/-73/-283 
f -51/-50/-282 -50/-49/-281 -42/-74/-280 
f -42/-74/-279 -43/-75/-278 -51/-50/-277 
f -69/-67/-276 -67/-64/-275 -58/-69/-274 
f -58/-69/-273 -60/-70/-272 -69/-67/-271 
f -77/-48/-270 -76/-47/-269 -57/-65/-268 
f -57/-65/-267 -59/-66/-266 -77/-48/-265 
f -67/-64/-264 -65/-60/-263 -56/-63/-262 
f -56/-63/-261 -58/-69/-260 -67/-64/-259 
f -76/-47/-258 -75/-46/-257 -55/-61/-256 
f -55/-61/-255 -57/-65/-254 -76/-47/-253 
f -65/-60/-252 -73/-56/-251 -64/-59/-250 
f -64/-59/-249 -56/-63/-248 -65/-60/-247 
f -75/-46/-246 -79/-53/-245 -63/-57/-244 
f -63/-57/-243 -55/-61/-242 -75/-46/-241 
f -53/-45/-240 -74/-58/-239 -64/-59/-238 
f -64/-59/-237 -41/-54/-236 -53/-45/-235 
f -12/-51/-234 -13/-55/-233 -73/-56/-232 
f -73/-56/-231 -63/-57/-230 -12/-51/-229 
f -41/-54/-228 -52/-44/-227 -53/-45/-226 
f -12/-51/-225 -54/-52/-224 -11/-43/-223 
f -60/-70/-222 -70/-71/-221 -49/-77/-220 
f -49/-77/-219 -44/-78/-218 -60/-70/-217 
f -72/-42/-216 -62/-41/-215 -45/-79/-214 
f -45/-79/-213 -48/-76/-212 -72/-42/-211 
f -42/-74/-210 -59/-66/-209 -69/-67/-208 
f -69/-67/-207 -46/-73/-206 -42/-74/-205 
f -47/-72/-204 -71/-40/-203 -61/-39/-202 
f -61/-39/-201 -43/-75/-200 -47/-72/-199 
f -69/-67/-198 -60/-70/-197 -44/-78/-196 
f -44/-78/-195 -46/-73/-194 -69/-67/-193 
f -62/-41/-192 -71/-40/-191 -47/-72/-190 
f -47/-72/-189 -45/-79/-188 -62/-41/-187 
f -50/-49/-186 -77/-48/-185 -59/-66/-184 
f -59/-66/-183 -42/-74/-182 -50/-49/-181 
f -43/-75/-180 -61/-39/-179 -78/-38/-178 
f -78/-38/-177 -51/-50/-176 -43/-75/-175 
f -3/-36/-174 -8/-35/-173 -7/-34/-172 
f -7/-34/-171 -4/-37/-170 -3/-36/-169 
f -2/-33/-168 -1/-32/-167 -5/-31/-166 
f -5/-31/-165 -6/-30/-164 -2/-33/-163 
f -21/-28/-162 -19/-27/-161 -29/-26/-160 
f -29/-26/-159 -31/-29/-158 -21/-28/-157 
f -20/-24/-156 -18/-23/-155 -28/-22/-154 
f -28/-22/-153 -30/-25/-152 -20/-24/-151 
f -19/-27/-150 -17/-21/-149 -27/-20/-148 
f -27/-20/-147 -29/-26/-146 -19/-27/-145 
f -18/-23/-144 -16/-19/-143 -26/-18/-142 
f -26/-18/-141 -28/-22/-140 -18/-23/-139 
f -17/-21/-138 -25/-17/-137 -35/-16/-136 
f -35/-16/-135 -27/-20/-134 -17/-21/-133 
f -16/-19/-132 -24/-15/-131 -34/-14/-130 
f -34/-14/-129 -26/-18/-128 -16/-19/-127 
f -25/-17/-126 -34/-14/-125 -13/-55/-124 
f -13/-55/-123 -12/-51/-122 -25/-17/-121 
f -24/-15/-120 -40/-13/-119 -15/-12/-118 
f -15/-12/-117 -41/-54/-116 -24/-15/-115 
f -5/-31/-114 -3/-36/-113 -4/-37/-112 
f -4/-37/-111 -6/-30/-110 -5/-31/-109 
f -10/-11/-108 -9/-10/-107 -1/-32/-106 
f -1/-32/-105 -2/-33/-104 -10/-11/-103 
f -30/-25/-102 -28/-22/-101 -19/-27/-100 
f -19/-27/-99 -21/-28/-98 -30/-25/-97 
f -38/-9/-96 -37/-8/-95 -18/-23/-94 
f -18/-23/-93 -20/-24/-92 -38/-9/-91 
f -28/-22/-90 -26/-18/-89 -17/-21/-88 
f -17/-21/-87 -19/-27/-86 -28/-22/-85 
f -37/-8/-84 -36/-7/-83 -16/-19/-82 
f -16/-19/-81 -18/-23/-80 -37/-8/-79 
f -26/-18/-78 -34/-14/-77 -25/-17/-76 
f -25/-17/-75 -17/-21/-74 -26/-18/-73 
f -36/-7/-72 -40/-13/-71 -24/-15/-70 
f -24/-15/-69 -16/-19/-68 -36/-7/-67 
f -14/-6/-66 -35/-16/-65 -25/-17/-64 
f -25/-17/-63 -12/-51/-62 -14/-6/-61 
f -41/-54/-60 -13/-55/-59 -34/-14/-58 
f -34/-14/-57 -24/-15/-56 -41/-54/-55 
f -12/-51/-54 -11/-43/-53 -14/-6/-52 
f -41/-54/-51 -15/-12/-50 -52/-44/-49 
f -21/-28/-48 -31/-29/-47 -8/-35/-46 
f -8/-35/-45 -3/-36/-44 -21/-28/-43 
f -33/-5/-42 -23/-4/-41 -4/-37/-40 
f -4/-37/-39 -7/-34/-38 -33/-5/-37 
f -1/-32/-36 -20/-24/-35 -30/-25/-34 
f -30/-25/-33 -5/-31/-32 -1/-32/-31 
f -6/-30/-30 -32/-3/-29 -22/-2/-28 
f -22/-2/-27 -2/-33/-26 -6/-30/-25 
f -30/-25/-24 -21/-28/-23 -3/-36/-22 
f -3/-36/-21 -5/-31/-20 -30/-25/-19 
f -23/-4/-18 -32/-3/-17 -6/-30/-16 
f -6/-30/-15 -4/-37/-14 -23/-4/-13 
f -9/-10/-12 -38/-9/-11 -20/-24/-10 
f -20/-24/-9 -1/-32/-8 -9/-10/-7 
f -2/-33/-6 -22/-2/-5 -39/-1/-4 
f -39/-1/-3 -10/-11/-2 -2/-33/-1 
# 116 faces

