# 3ds Max Wavefront OBJ Exporter v0.97b - (c)2007 guruware
# File Created: 04.02.2013 02:02:18

#
# object inner_corner
#

v  -0.50 1.00 0.50
v  -0.50 0.94 0.15
v  -0.50 -0.20 0.07
v  -0.50 0.40 0.09
v  -0.50 0.60 0.07
v  -0.50 0.80 0.07
v  0.14 0.94 -0.50
v  -0.18 0.94 -0.19
v  0.07 -0.20 -0.50
v  -0.21 -0.20 -0.22
v  0.10 0.40 -0.50
v  -0.25 0.39 -0.25
v  0.07 0.60 -0.50
v  -0.24 0.59 -0.24
v  0.07 0.80 -0.50
v  -0.21 0.80 -0.22
v  0.50 1.00 -0.50
v  0.18 1.00 0.18
v  0.01 0.94 -0.29
v  -0.25 0.94 0.03
v  -0.14 -0.20 -0.32
v  -0.33 -0.20 -0.12
v  -0.11 0.40 -0.35
v  -0.33 0.40 -0.06
v  -0.11 0.60 -0.32
v  -0.31 0.60 -0.06
v  -0.14 0.80 -0.32
v  -0.33 0.80 -0.12
v  0.50 1.00 0.00
v  -0.00 1.00 0.50
v  -0.50 1.00 0.33
v  0.33 1.00 -0.50
v  -0.06 1.00 -0.06
v  0.23 1.00 -0.26
v  -0.21 1.00 0.26
v  -0.00 1.00 0.50
v  0.50 1.00 0.50
v  0.50 1.00 0.50
v  -0.50 -0.00 0.02
v  -0.50 0.18 0.11
v  0.11 0.18 -0.50
v  0.02 -0.00 -0.50
v  -0.24 -0.00 -0.20
v  -0.25 0.18 -0.24
v  -0.16 -0.00 -0.36
v  -0.15 0.18 -0.36
v  -0.36 -0.00 -0.14
v  -0.37 0.18 -0.11
# 48 vertices

vn 0.00 1.00 -0.00
vn -0.11 0.99 -0.06
vn -0.10 0.99 -0.07
vn -0.10 0.99 -0.07
vn 0.00 1.00 -0.00
vn 0.00 1.00 -0.00
vn 0.00 1.00 -0.00
vn -0.17 0.98 -0.14
vn -0.05 1.00 -0.08
vn -0.05 1.00 -0.08
vn 0.00 1.00 -0.00
vn 0.00 1.00 -0.00
vn -0.64 0.08 -0.76
vn -0.50 0.12 -0.86
vn -0.55 0.01 -0.83
vn -0.55 0.01 -0.83
vn -0.76 -0.11 -0.65
vn -0.64 0.08 -0.76
vn -0.65 -0.07 -0.76
vn -0.80 0.14 -0.59
vn -0.76 -0.06 -0.64
vn -0.76 -0.06 -0.64
vn -0.70 -0.14 -0.70
vn -0.65 -0.07 -0.76
vn -0.57 0.09 -0.82
vn -0.62 0.01 -0.78
vn -0.68 -0.01 -0.74
vn -0.68 -0.01 -0.74
vn -0.60 -0.06 -0.80
vn -0.57 0.09 -0.82
vn -0.82 0.13 -0.55
vn -0.76 -0.06 -0.65
vn -0.79 0.10 -0.61
vn -0.79 0.10 -0.61
vn -0.76 0.10 -0.64
vn -0.82 0.13 -0.55
vn -0.62 0.01 -0.78
vn -0.69 0.35 -0.63
vn -0.66 0.17 -0.73
vn -0.66 0.17 -0.73
vn -0.68 -0.01 -0.74
vn -0.62 0.01 -0.78
vn -0.76 -0.06 -0.65
vn -0.70 0.22 -0.68
vn -0.70 0.24 -0.67
vn -0.70 0.24 -0.67
vn -0.79 0.10 -0.61
vn -0.76 -0.06 -0.65
vn -0.69 0.35 -0.63
vn -0.39 0.85 -0.37
vn -0.45 0.81 -0.36
vn -0.45 0.81 -0.36
vn -0.66 0.17 -0.73
vn -0.69 0.35 -0.63
vn -0.70 0.22 -0.68
vn -0.41 0.86 -0.30
vn -0.49 0.70 -0.53
vn -0.49 0.70 -0.53
vn -0.70 0.24 -0.67
vn -0.70 0.22 -0.68
vn -0.39 0.85 -0.37
vn -0.49 0.70 -0.53
vn -0.17 0.98 -0.14
vn -0.17 0.98 -0.14
vn -0.10 0.99 -0.07
vn -0.39 0.85 -0.37
vn -0.41 0.86 -0.30
vn -0.28 0.79 -0.54
vn -0.05 0.99 -0.13
vn -0.05 0.99 -0.13
vn -0.05 1.00 -0.08
vn -0.41 0.86 -0.30
vn -0.76 -0.06 -0.64
vn -0.64 0.08 -0.76
vn -0.76 -0.11 -0.65
vn -0.76 -0.11 -0.65
vn -0.70 -0.14 -0.70
vn -0.76 -0.06 -0.64
vn -0.79 0.02 -0.62
vn -0.80 0.16 -0.58
vn -0.80 0.14 -0.59
vn -0.80 0.14 -0.59
vn -0.65 -0.07 -0.76
vn -0.79 0.02 -0.62
vn -0.76 0.10 -0.64
vn -0.79 0.10 -0.61
vn -0.62 0.01 -0.78
vn -0.62 0.01 -0.78
vn -0.57 0.09 -0.82
vn -0.76 0.10 -0.64
vn -0.64 -0.04 -0.77
vn -0.62 -0.11 -0.78
vn -0.76 -0.06 -0.65
vn -0.76 -0.06 -0.65
vn -0.82 0.13 -0.55
vn -0.64 -0.04 -0.77
vn -0.79 0.10 -0.61
vn -0.70 0.24 -0.67
vn -0.69 0.35 -0.63
vn -0.69 0.35 -0.63
vn -0.62 0.01 -0.78
vn -0.79 0.10 -0.61
vn -0.62 -0.11 -0.78
vn -0.62 0.36 -0.70
vn -0.70 0.22 -0.68
vn -0.70 0.22 -0.68
vn -0.76 -0.06 -0.65
vn -0.62 -0.11 -0.78
vn -0.39 0.85 -0.37
vn -0.69 0.35 -0.63
vn -0.70 0.24 -0.67
vn -0.70 0.24 -0.67
vn -0.49 0.70 -0.53
vn -0.39 0.85 -0.37
vn -0.62 0.36 -0.70
vn -0.28 0.79 -0.54
vn -0.41 0.86 -0.30
vn -0.41 0.86 -0.30
vn -0.70 0.22 -0.68
vn -0.62 0.36 -0.70
vn -0.11 0.99 -0.06
vn -0.45 0.81 -0.36
vn -0.39 0.85 -0.37
vn -0.39 0.85 -0.37
vn -0.10 0.99 -0.07
vn -0.11 0.99 -0.06
vn -0.17 0.98 -0.14
vn -0.49 0.70 -0.53
vn -0.41 0.86 -0.30
vn -0.41 0.86 -0.30
vn -0.05 1.00 -0.08
vn -0.17 0.98 -0.14
vn 0.00 1.00 -0.00
vn 0.00 1.00 -0.00
vn -0.10 0.99 -0.07
vn -0.10 0.99 -0.07
vn -0.17 0.98 -0.14
vn 0.00 1.00 -0.00
vn 0.00 1.00 -0.00
vn 0.00 1.00 -0.00
vn -0.05 1.00 -0.08
vn -0.05 1.00 -0.08
vn -0.05 0.99 -0.13
vn 0.00 1.00 -0.00
vn 0.00 1.00 -0.00
vn 0.00 1.00 -0.00
vn 0.00 1.00 -0.00
vn 0.00 1.00 -0.00
vn 0.00 1.00 -0.00
vn 0.00 1.00 -0.00
vn 0.00 1.00 -0.00
vn 0.00 1.00 -0.00
vn 0.00 1.00 -0.00
vn -0.57 0.09 -0.82
vn -0.60 -0.06 -0.80
vn -0.50 0.12 -0.86
vn -0.50 0.12 -0.86
vn -0.64 0.08 -0.76
vn -0.57 0.09 -0.82
vn -0.62 -0.17 -0.77
vn -0.76 -0.17 -0.62
vn -0.76 -0.11 -0.65
vn -0.76 -0.11 -0.65
vn -0.55 0.01 -0.83
vn -0.62 -0.17 -0.77
vn -0.80 0.14 -0.59
vn -0.82 0.13 -0.55
vn -0.76 0.10 -0.64
vn -0.76 0.10 -0.64
vn -0.76 -0.06 -0.64
vn -0.80 0.14 -0.59
vn -0.70 -0.14 -0.70
vn -0.73 -0.05 -0.68
vn -0.65 -0.11 -0.75
vn -0.65 -0.11 -0.75
vn -0.65 -0.07 -0.76
vn -0.70 -0.14 -0.70
vn -0.76 0.10 -0.64
vn -0.57 0.09 -0.82
vn -0.64 0.08 -0.76
vn -0.64 0.08 -0.76
vn -0.76 -0.06 -0.64
vn -0.76 0.10 -0.64
vn -0.76 -0.17 -0.62
vn -0.73 -0.05 -0.68
vn -0.70 -0.14 -0.70
vn -0.70 -0.14 -0.70
vn -0.76 -0.11 -0.65
vn -0.76 -0.17 -0.62
vn -0.80 0.16 -0.58
vn -0.64 -0.04 -0.77
vn -0.82 0.13 -0.55
vn -0.82 0.13 -0.55
vn -0.80 0.14 -0.59
vn -0.80 0.16 -0.58
vn -0.65 -0.07 -0.76
vn -0.65 -0.11 -0.75
vn -0.74 -0.15 -0.65
vn -0.74 -0.15 -0.65
vn -0.79 0.02 -0.62
vn -0.65 -0.07 -0.76
# 201 vertex normals

vt 1.00 1.00 0.00
vt 0.82 1.00 0.00
vt 0.73 0.76 0.00
vt 1.00 0.50 0.00
vt 0.68 0.32 0.00
vt 0.44 0.56 0.00
vt 0.29 0.24 0.00
vt 0.50 0.00 0.00
vt 0.34 0.86 0.00
vt 0.34 0.86 0.00
vt 0.61 1.00 0.00
vt 0.52 1.00 0.00
vt 0.14 0.64 0.00
vt 0.13 0.61 0.00
vt 0.25 0.74 0.00
vt 0.26 0.70 0.00
vt 0.60 1.00 0.00
vt 0.39 0.85 0.00
vt 0.39 0.83 0.00
vt 0.57 1.00 0.00
vt 0.24 0.75 0.00
vt 0.17 0.56 0.00
vt 0.19 0.56 0.00
vt 0.26 0.74 0.00
vt 0.36 0.82 0.00
vt 0.57 1.00 0.00
vt 0.17 0.62 0.00
vt 0.29 0.72 0.00
vt 0.51 0.79 0.00
vt 0.64 1.00 0.00
vt 0.25 0.47 0.00
vt 0.32 0.69 0.00
vt 0.00 0.35 0.00
vt 0.00 0.18 0.00
vt -0.00 0.48 0.00
vt 0.00 0.39 0.00
vt 0.00 0.41 0.00
vt 0.00 0.43 0.00
vt 0.00 0.43 0.00
vt 0.00 0.00 0.00
vt 1.00 0.00 0.00
vt 1.00 0.00 0.00
vt 0.50 0.00 0.00
vt 0.56 1.00 0.00
vt 0.36 0.82 0.00
vt 0.29 0.72 0.00
vt 0.17 0.62 0.00
vt 0.00 0.43 0.00
# 48 texture coords

g inner_corner
f -32/-48/-201 -17/-47/-200 -15/-46/-199 
f -15/-46/-198 -20/-45/-197 -32/-48/-196 
f -31/-44/-195 -16/-43/-194 -14/-42/-193 
f -14/-42/-192 -19/-41/-191 -31/-44/-190 
f -3/-39/-189 -8/-38/-188 -7/-37/-187 
f -7/-37/-186 -4/-40/-185 -3/-39/-184 
f -2/-36/-183 -1/-35/-182 -5/-34/-181 
f -5/-34/-180 -6/-33/-179 -2/-36/-178 
f -26/-31/-177 -24/-30/-176 -36/-29/-175 
f -36/-29/-174 -38/-32/-173 -26/-31/-172 
f -25/-27/-171 -23/-26/-170 -35/-25/-169 
f -35/-25/-168 -37/-28/-167 -25/-27/-166 
f -24/-30/-165 -22/-24/-164 -34/-23/-163 
f -34/-23/-162 -36/-29/-161 -24/-30/-160 
f -23/-26/-159 -21/-22/-158 -33/-21/-157 
f -33/-21/-156 -35/-25/-155 -23/-26/-154 
f -22/-24/-153 -30/-20/-152 -42/-19/-151 
f -42/-19/-150 -34/-23/-149 -22/-24/-148 
f -21/-22/-147 -29/-18/-146 -41/-17/-145 
f -41/-17/-144 -33/-21/-143 -21/-22/-142 
f -30/-20/-141 -41/-17/-140 -16/-43/-139 
f -16/-43/-138 -15/-46/-137 -30/-20/-136 
f -29/-18/-135 -47/-16/-134 -18/-15/-133 
f -18/-15/-132 -14/-42/-131 -29/-18/-130 
f -5/-34/-129 -3/-39/-128 -4/-40/-127 
f -4/-40/-126 -6/-33/-125 -5/-34/-124 
f -10/-14/-123 -9/-13/-122 -1/-35/-121 
f -1/-35/-120 -2/-36/-119 -10/-14/-118 
f -37/-28/-117 -35/-25/-116 -24/-30/-115 
f -24/-30/-114 -26/-31/-113 -37/-28/-112 
f -45/-12/-111 -44/-11/-110 -23/-26/-109 
f -23/-26/-108 -25/-27/-107 -45/-12/-106 
f -35/-25/-105 -33/-21/-104 -22/-24/-103 
f -22/-24/-102 -24/-30/-101 -35/-25/-100 
f -44/-11/-99 -43/-10/-98 -21/-22/-97 
f -21/-22/-96 -23/-26/-95 -44/-11/-94 
f -30/-20/-93 -22/-24/-92 -33/-21/-91 
f -33/-21/-90 -41/-17/-89 -30/-20/-88 
f -43/-10/-87 -47/-16/-86 -29/-18/-85 
f -29/-18/-84 -21/-22/-83 -43/-10/-82 
f -17/-47/-81 -42/-19/-80 -30/-20/-79 
f -30/-20/-78 -15/-46/-77 -17/-47/-76 
f -16/-43/-75 -41/-17/-74 -29/-18/-73 
f -29/-18/-72 -14/-42/-71 -16/-43/-70 
f -31/-44/-69 -20/-45/-68 -15/-46/-67 
f -15/-46/-66 -16/-43/-65 -31/-44/-64 
f -48/-9/-63 -19/-41/-62 -14/-42/-61 
f -14/-42/-60 -18/-15/-59 -48/-9/-58 
f -31/-44/-57 -11/-7/-56 -12/-8/-55 
f -12/-8/-54 -20/-45/-53 -31/-44/-52 
f -31/-44/-51 -13/-6/-50 -11/-7/-49 
f -26/-31/-48 -38/-32/-47 -8/-38/-46 
f -8/-38/-45 -3/-39/-44 -26/-31/-43 
f -40/-5/-42 -28/-4/-41 -4/-40/-40 
f -4/-40/-39 -7/-37/-38 -40/-5/-37 
f -1/-35/-36 -25/-27/-35 -37/-28/-34 
f -37/-28/-33 -5/-34/-32 -1/-35/-31 
f -6/-33/-30 -39/-3/-29 -27/-2/-28 
f -27/-2/-27 -2/-36/-26 -6/-33/-25 
f -37/-28/-24 -26/-31/-23 -3/-39/-22 
f -3/-39/-21 -5/-34/-20 -37/-28/-19 
f -28/-4/-18 -39/-3/-17 -6/-33/-16 
f -6/-33/-15 -4/-40/-14 -28/-4/-13 
f -9/-13/-12 -45/-12/-11 -25/-27/-10 
f -25/-27/-9 -1/-35/-8 -9/-13/-7 
f -2/-36/-6 -27/-2/-5 -46/-1/-4 
f -46/-1/-3 -10/-14/-2 -2/-36/-1 
# 67 faces

