# 3ds Max Wavefront OBJ Exporter v0.97b - (c)2007 guruware
# File Created: 11.02.2013 16:46:44

#
# object corner
#

v  0.50 1.00 0.50
v  0.25 1.00 0.50
v  0.50 1.00 0.25
v  0.50 1.05 0.20
v  0.20 1.05 0.50
v  0.00 1.05 0.50
v  0.50 1.05 0.00
v  -0.05 1.15 0.50
v  0.50 1.15 -0.05
v  0.50 1.05 -0.10
v  -0.10 1.05 0.50
v  0.50 0.85 -0.05
v  -0.05 0.85 0.50
v  0.50 0.80 -0.00
v  -0.00 0.80 0.50
v  0.50 0.60 -0.00
v  -0.00 0.60 0.50
v  0.50 0.40 -0.00
v  -0.00 0.40 0.50
v  0.50 0.20 -0.00
v  -0.00 0.20 0.50
v  0.50 0.15 -0.05
v  -0.05 0.15 0.50
v  0.50 0.00 -0.05
v  -0.05 0.00 0.50
v  0.37 1.00 0.37
v  0.35 1.05 0.35
v  0.29 1.05 0.29
v  0.26 1.15 0.26
v  0.24 1.05 0.24
v  0.26 0.85 0.26
v  0.28 0.80 0.28
v  0.28 0.60 0.28
v  0.28 0.40 0.28
v  0.28 0.20 0.28
v  0.26 0.15 0.26
v  0.26 0.00 0.26
v  0.32 1.00 0.43
v  0.30 1.05 0.40
v  0.20 1.05 0.30
v  0.17 1.15 0.28
v  0.15 1.05 0.25
v  0.17 0.85 0.28
v  0.20 0.80 0.30
v  0.20 0.60 0.30
v  0.20 0.40 0.30
v  0.20 0.20 0.30
v  0.17 0.15 0.28
v  0.17 0.00 0.28
v  0.43 1.00 0.32
v  0.40 1.05 0.30
v  0.30 1.05 0.20
v  0.28 1.15 0.17
v  0.25 1.05 0.15
v  0.28 0.85 0.17
v  0.30 0.80 0.20
v  0.30 0.60 0.20
v  0.30 0.40 0.20
v  0.30 0.20 0.20
v  0.28 0.15 0.17
v  0.28 0.00 0.17
# 61 vertices

vn 0.00 1.00 -0.00
vn 0.00 1.00 -0.00
vn 0.00 1.00 -0.00
vn 0.00 1.00 -0.00
vn 0.00 1.00 -0.00
vn 0.00 1.00 -0.00
vn 0.00 1.00 -0.00
vn 0.00 1.00 -0.00
vn 0.00 1.00 -0.00
vn 0.58 0.57 0.58
vn 0.58 0.57 0.58
vn 0.58 0.57 0.58
vn 0.58 0.57 0.58
vn 0.58 0.57 0.58
vn 0.58 0.57 0.58
vn 0.00 1.00 -0.00
vn 0.00 1.00 -0.00
vn 0.00 1.00 -0.00
vn 0.00 1.00 -0.00
vn 0.00 1.00 -0.00
vn 0.00 1.00 -0.00
vn 0.67 0.34 0.67
vn 0.67 0.34 0.67
vn 0.67 0.34 0.67
vn 0.67 0.34 0.67
vn 0.67 0.34 0.67
vn 0.67 0.34 0.67
vn -0.67 0.33 -0.67
vn -0.67 0.33 -0.67
vn -0.67 0.33 -0.67
vn -0.67 0.33 -0.67
vn -0.67 0.33 -0.67
vn -0.67 0.33 -0.67
vn -0.70 -0.17 -0.70
vn -0.70 -0.17 -0.70
vn -0.70 -0.17 -0.70
vn -0.70 -0.17 -0.70
vn -0.70 -0.17 -0.70
vn -0.70 -0.17 -0.70
vn -0.58 -0.57 -0.58
vn -0.58 -0.57 -0.58
vn -0.58 -0.57 -0.58
vn -0.58 -0.57 -0.58
vn -0.58 -0.57 -0.58
vn -0.58 -0.57 -0.58
vn -0.71 0.00 -0.71
vn -0.71 0.00 -0.71
vn -0.71 0.00 -0.71
vn -0.71 0.00 -0.71
vn -0.71 0.00 -0.71
vn -0.71 0.00 -0.71
vn -0.71 0.00 -0.71
vn -0.71 0.00 -0.71
vn -0.71 0.00 -0.71
vn -0.71 0.00 -0.71
vn -0.71 0.00 -0.71
vn -0.71 0.00 -0.71
vn -0.71 0.00 -0.71
vn -0.71 0.00 -0.71
vn -0.71 0.00 -0.71
vn -0.71 0.00 -0.71
vn -0.71 0.00 -0.71
vn -0.71 0.00 -0.71
vn -0.58 0.57 -0.58
vn -0.58 0.57 -0.58
vn -0.58 0.57 -0.58
vn -0.58 0.57 -0.58
vn -0.58 0.57 -0.58
vn -0.58 0.57 -0.58
vn -0.71 0.00 -0.71
vn -0.71 0.00 -0.71
vn -0.71 0.00 -0.71
vn -0.71 0.00 -0.71
vn -0.71 0.00 -0.71
vn -0.71 0.00 -0.71
vn 0.58 0.57 0.58
vn 0.58 0.57 0.58
vn 0.58 0.57 0.58
vn 0.58 0.57 0.58
vn 0.58 0.57 0.58
vn 0.58 0.57 0.58
vn 0.00 1.00 -0.00
vn 0.00 1.00 -0.00
vn 0.00 1.00 -0.00
vn 0.00 1.00 -0.00
vn 0.00 1.00 -0.00
vn 0.00 1.00 -0.00
vn 0.94 0.29 0.19
vn 0.94 0.29 0.19
vn 0.94 0.29 0.19
vn 0.94 0.29 0.20
vn 0.94 0.29 0.20
vn 0.94 0.29 0.20
vn -0.94 0.28 -0.20
vn -0.94 0.28 -0.20
vn -0.94 0.28 -0.20
vn -0.94 0.28 -0.20
vn -0.94 0.28 -0.20
vn -0.94 0.28 -0.20
vn -0.97 -0.15 -0.20
vn -0.97 -0.15 -0.20
vn -0.97 -0.15 -0.20
vn -0.97 -0.15 -0.20
vn -0.97 -0.15 -0.20
vn -0.97 -0.15 -0.20
vn -0.17 -0.50 -0.85
vn -0.17 -0.50 -0.85
vn -0.17 -0.50 -0.85
vn -0.17 -0.51 -0.84
vn -0.17 -0.51 -0.84
vn -0.17 -0.51 -0.84
vn -0.20 0.00 -0.98
vn -0.20 0.00 -0.98
vn -0.20 0.00 -0.98
vn -0.20 0.00 -0.98
vn -0.20 0.00 -0.98
vn -0.20 0.00 -0.98
vn -0.98 0.00 -0.20
vn -0.98 0.00 -0.20
vn -0.98 0.00 -0.20
vn -0.98 0.00 -0.20
vn -0.98 0.00 -0.20
vn -0.98 0.00 -0.20
vn -0.98 0.00 -0.20
vn -0.98 0.00 -0.20
vn -0.98 0.00 -0.20
vn -0.98 0.00 -0.20
vn -0.98 0.00 -0.20
vn -0.98 0.00 -0.20
vn -0.85 0.50 -0.18
vn -0.85 0.50 -0.18
vn -0.85 0.50 -0.18
vn -0.85 0.50 -0.18
vn -0.85 0.50 -0.18
vn -0.85 0.50 -0.18
vn -0.98 0.00 -0.20
vn -0.98 0.00 -0.20
vn -0.98 0.00 -0.20
vn -0.98 0.00 -0.20
vn -0.98 0.00 -0.20
vn -0.98 0.00 -0.20
vn 0.00 -1.00 -0.00
vn 0.00 -1.00 -0.00
vn 0.00 -1.00 -0.00
vn 0.58 0.57 0.58
vn 0.58 0.57 0.58
vn 0.58 0.57 0.58
vn 0.58 0.57 0.58
vn 0.58 0.57 0.58
vn 0.58 0.57 0.58
vn 0.00 1.00 -0.00
vn 0.00 1.00 -0.00
vn 0.00 1.00 -0.00
vn 0.00 1.00 -0.00
vn 0.00 1.00 -0.00
vn 0.00 1.00 -0.00
vn 0.19 0.29 0.94
vn 0.19 0.29 0.94
vn 0.19 0.29 0.94
vn 0.19 0.29 0.94
vn 0.19 0.29 0.94
vn 0.19 0.29 0.94
vn -0.19 0.28 -0.94
vn -0.19 0.28 -0.94
vn -0.19 0.28 -0.94
vn -0.19 0.28 -0.94
vn -0.19 0.28 -0.94
vn -0.19 0.28 -0.94
vn -0.19 -0.14 -0.97
vn -0.19 -0.14 -0.97
vn -0.19 -0.14 -0.97
vn -0.19 -0.14 -0.97
vn -0.19 -0.14 -0.97
vn -0.19 -0.14 -0.97
vn -0.84 -0.51 -0.18
vn -0.84 -0.51 -0.18
vn -0.84 -0.51 -0.18
vn -0.84 -0.51 -0.18
vn -0.84 -0.51 -0.18
vn -0.84 -0.51 -0.18
vn -0.98 0.00 -0.20
vn -0.98 0.00 -0.20
vn -0.98 0.00 -0.20
vn -0.98 0.00 -0.20
vn -0.98 0.00 -0.20
vn -0.98 0.00 -0.20
vn -0.20 0.00 -0.98
vn -0.20 0.00 -0.98
vn -0.20 0.00 -0.98
vn -0.20 0.00 -0.98
vn -0.20 0.00 -0.98
vn -0.20 0.00 -0.98
vn -0.20 0.00 -0.98
vn -0.20 0.00 -0.98
vn -0.20 0.00 -0.98
vn -0.20 0.00 -0.98
vn -0.20 0.00 -0.98
vn -0.20 0.00 -0.98
vn -0.17 0.51 -0.84
vn -0.17 0.51 -0.84
vn -0.17 0.51 -0.84
vn -0.17 0.50 -0.85
vn -0.17 0.50 -0.85
vn -0.17 0.50 -0.85
vn -0.19 0.00 -0.98
vn -0.19 0.00 -0.98
vn -0.19 0.00 -0.98
vn -0.19 0.00 -0.98
vn -0.19 0.00 -0.98
vn -0.19 0.00 -0.98
vn 0.58 0.57 0.58
vn 0.58 0.57 0.58
vn 0.58 0.57 0.58
vn 0.58 0.57 0.58
vn 0.58 0.57 0.58
vn 0.58 0.57 0.58
vn 0.00 1.00 -0.00
vn 0.00 1.00 -0.00
vn 0.00 1.00 -0.00
vn 0.00 1.00 -0.00
vn 0.00 1.00 -0.00
vn 0.00 1.00 -0.00
vn 0.67 0.34 0.67
vn 0.67 0.34 0.67
vn 0.67 0.34 0.67
vn 0.67 0.34 0.67
vn 0.67 0.34 0.67
vn 0.67 0.34 0.67
vn -0.67 0.33 -0.67
vn -0.67 0.33 -0.67
vn -0.67 0.33 -0.67
vn -0.67 0.33 -0.67
vn -0.67 0.33 -0.67
vn -0.67 0.33 -0.67
vn -0.70 -0.17 -0.70
vn -0.70 -0.17 -0.70
vn -0.70 -0.17 -0.70
vn -0.70 -0.17 -0.70
vn -0.70 -0.17 -0.70
vn -0.70 -0.17 -0.70
vn -0.58 -0.57 -0.58
vn -0.58 -0.57 -0.58
vn -0.58 -0.57 -0.58
vn -0.58 -0.57 -0.58
vn -0.58 -0.57 -0.58
vn -0.58 -0.57 -0.58
vn -0.71 0.00 -0.71
vn -0.71 0.00 -0.71
vn -0.71 0.00 -0.71
vn -0.71 0.00 -0.71
vn -0.71 0.00 -0.71
vn -0.71 0.00 -0.71
vn -0.71 0.00 -0.71
vn -0.71 0.00 -0.71
vn -0.71 0.00 -0.71
vn -0.71 0.00 -0.71
vn -0.71 0.00 -0.71
vn -0.71 0.00 -0.71
vn -0.71 0.00 -0.71
vn -0.71 0.00 -0.71
vn -0.71 0.00 -0.71
vn -0.71 0.00 -0.71
vn -0.71 0.00 -0.71
vn -0.71 0.00 -0.71
vn -0.58 0.57 -0.58
vn -0.58 0.57 -0.58
vn -0.58 0.57 -0.58
vn -0.58 0.57 -0.58
vn -0.58 0.57 -0.58
vn -0.58 0.57 -0.58
vn -0.71 0.00 -0.71
vn -0.71 0.00 -0.71
vn -0.71 0.00 -0.71
vn -0.71 0.00 -0.71
vn -0.71 0.00 -0.71
vn -0.71 0.00 -0.71
# 276 vertex normals

vt 0.50 0.96 0.00
vt 0.30 0.94 0.00
vt 0.42 0.94 0.00
vt 0.59 0.94 0.00
vt 0.68 0.94 0.00
vt 0.59 0.91 0.00
vt 0.74 0.91 0.00
vt 0.08 0.86 0.00
vt 0.41 0.86 0.00
vt 0.42 0.91 0.00
vt 0.26 0.91 0.00
vt 0.92 0.86 0.00
vt 0.59 0.86 0.00
vt 0.59 0.77 0.00
vt 0.96 0.77 0.00
vt 0.59 0.69 0.00
vt 1.00 0.69 0.00
vt 0.59 0.57 0.00
vt 0.96 0.57 0.00
vt 0.04 0.57 0.00
vt 0.08 0.49 0.00
vt 0.41 0.49 0.00
vt 0.41 0.57 0.00
vt 0.08 0.37 0.00
vt 0.41 0.37 0.00
vt 0.92 0.37 0.00
vt 0.59 0.37 0.00
vt 0.59 0.26 0.00
vt 0.92 0.26 0.00
vt 0.59 0.14 0.00
vt 0.92 0.14 0.00
vt 0.59 0.09 0.00
vt 0.96 0.09 0.00
vt 0.59 0.00 0.00
vt 0.96 0.00 0.00
vt 0.50 0.91 0.00
vt 0.50 0.94 0.00
vt 0.50 0.86 0.00
vt 0.50 0.77 0.00
vt 0.41 0.77 0.00
vt 0.50 0.69 0.00
vt 0.41 0.69 0.00
vt 0.50 0.57 0.00
vt 0.50 0.49 0.00
vt 0.59 0.49 0.00
vt 0.50 0.37 0.00
vt 0.50 0.26 0.00
vt 0.41 0.26 0.00
vt 0.50 0.14 0.00
vt 0.41 0.14 0.00
vt 0.50 0.09 0.00
vt 0.41 0.09 0.00
vt 0.50 0.00 0.00
vt 0.41 0.00 0.00
vt 0.04 0.77 0.00
vt 0.00 0.69 0.00
vt 0.92 0.49 0.00
vt 0.08 0.26 0.00
vt 0.08 0.14 0.00
vt 0.04 0.09 0.00
vt 0.04 0.00 0.00
# 61 texture coords

g corner
f -61/-61/-276 -59/-60/-275 -12/-59/-274 
f -61/-61/-273 -12/-59/-272 -24/-58/-271 
f -61/-61/-270 -24/-58/-269 -60/-57/-268 
f -60/-57/-267 -24/-58/-266 -23/-56/-265 
f -23/-56/-264 -57/-55/-263 -60/-57/-262 
f -58/-51/-261 -55/-54/-260 -10/-53/-259 
f -10/-53/-258 -11/-52/-257 -58/-51/-256 
f -56/-50/-255 -22/-49/-254 -21/-48/-253 
f -21/-48/-252 -54/-47/-251 -56/-50/-250 
f -54/-47/-249 -21/-48/-248 -20/-46/-247 
f -20/-46/-246 -51/-45/-245 -54/-47/-244 
f -49/-43/-243 -51/-45/-242 -20/-46/-241 
f -20/-46/-240 -19/-44/-239 -49/-43/-238 
f -7/-39/-237 -50/-42/-236 -48/-41/-235 
f -48/-41/-234 -6/-40/-233 -7/-39/-232 
f -48/-41/-231 -46/-38/-230 -5/-37/-229 
f -5/-37/-228 -6/-40/-227 -48/-41/-226 
f -43/-33/-225 -45/-36/-224 -17/-35/-223 
f -17/-35/-222 -16/-34/-221 -43/-33/-220 
f -41/-31/-219 -43/-33/-218 -16/-34/-217 
f -16/-34/-216 -15/-32/-215 -41/-31/-214 
f -41/-31/-213 -15/-32/-212 -14/-30/-211 
f -14/-30/-210 -39/-29/-209 -41/-31/-208 
f -37/-27/-207 -39/-29/-206 -14/-30/-205 
f -14/-30/-204 -13/-28/-203 -37/-27/-202 
f -35/-26/-201 -36/-25/-200 -12/-59/-199 
f -12/-59/-198 -11/-52/-197 -35/-26/-196 
f -23/-56/-195 -35/-26/-194 -34/-24/-193 
f -34/-24/-192 -22/-49/-191 -23/-56/-190 
f -33/-23/-189 -34/-24/-188 -10/-53/-187 
f -10/-53/-186 -9/-22/-185 -33/-23/-184 
f -32/-21/-183 -33/-23/-182 -9/-22/-181 
f -9/-22/-180 -8/-20/-179 -32/-21/-178 
f -7/-39/-177 -31/-19/-176 -32/-21/-175 
f -32/-21/-174 -8/-20/-173 -7/-39/-172 
f -31/-19/-171 -30/-18/-170 -18/-17/-169 
f -18/-17/-168 -19/-44/-167 -31/-19/-166 
f -18/-17/-165 -30/-18/-164 -29/-16/-163 
f -29/-16/-162 -17/-35/-161 -18/-17/-160 
f -4/-14/-159 -28/-15/-158 -29/-16/-157 
f -29/-16/-156 -5/-37/-155 -4/-14/-154 
f -3/-12/-153 -27/-13/-152 -28/-15/-151 
f -28/-15/-150 -4/-14/-149 -3/-12/-148 
f -26/-11/-147 -27/-13/-146 -3/-12/-145 
f -3/-12/-144 -2/-10/-143 -26/-11/-142 
f -1/-8/-141 -25/-9/-140 -26/-11/-139 
f -26/-11/-138 -2/-10/-137 -1/-8/-136 
f -24/-58/-135 -12/-59/-134 -36/-25/-133 
f -35/-26/-132 -23/-56/-131 -24/-58/-130 
f -24/-58/-129 -36/-25/-128 -35/-26/-127 
f -11/-52/-126 -10/-53/-125 -34/-24/-124 
f -34/-24/-123 -35/-26/-122 -11/-52/-121 
f -33/-23/-120 -21/-48/-119 -22/-49/-118 
f -22/-49/-117 -34/-24/-116 -33/-23/-115 
f -32/-21/-114 -20/-46/-113 -21/-48/-112 
f -21/-48/-111 -33/-23/-110 -32/-21/-109 
f -19/-44/-108 -20/-46/-107 -32/-21/-106 
f -32/-21/-105 -31/-19/-104 -19/-44/-103 
f -31/-19/-102 -7/-39/-101 -6/-40/-100 
f -6/-40/-99 -30/-18/-98 -31/-19/-97 
f -30/-18/-96 -6/-40/-95 -5/-37/-94 
f -5/-37/-93 -29/-16/-92 -30/-18/-91 
f -28/-15/-90 -16/-34/-89 -17/-35/-88 
f -17/-35/-87 -29/-16/-86 -28/-15/-85 
f -27/-13/-84 -15/-32/-83 -16/-34/-82 
f -16/-34/-81 -28/-15/-80 -27/-13/-79 
f -26/-11/-78 -14/-30/-77 -15/-32/-76 
f -15/-32/-75 -27/-13/-74 -26/-11/-73 
f -25/-9/-72 -13/-28/-71 -14/-30/-70 
f -14/-30/-69 -26/-11/-68 -25/-9/-67 
f -11/-52/-66 -12/-59/-65 -59/-60/-64 
f -59/-60/-63 -58/-51/-62 -11/-52/-61 
f -57/-55/-60 -23/-56/-59 -22/-49/-58 
f -22/-49/-57 -56/-50/-56 -57/-55/-55 
f -9/-22/-54 -10/-53/-53 -55/-54/-52 
f -55/-54/-51 -53/-7/-50 -9/-22/-49 
f -8/-20/-48 -9/-22/-47 -53/-7/-46 
f -53/-7/-45 -52/-6/-44 -8/-20/-43 
f -50/-42/-42 -7/-39/-41 -8/-20/-40 
f -8/-20/-39 -52/-6/-38 -50/-42/-37 
f -19/-44/-36 -18/-17/-35 -47/-5/-34 
f -47/-5/-33 -49/-43/-32 -19/-44/-31 
f -47/-5/-30 -18/-17/-29 -17/-35/-28 
f -17/-35/-27 -45/-36/-26 -47/-5/-25 
f -44/-4/-24 -4/-14/-23 -5/-37/-22 
f -5/-37/-21 -46/-38/-20 -44/-4/-19 
f -42/-3/-18 -3/-12/-17 -4/-14/-16 
f -4/-14/-15 -44/-4/-14 -42/-3/-13 
f -2/-10/-12 -3/-12/-11 -42/-3/-10 
f -42/-3/-9 -40/-2/-8 -2/-10/-7 
f -38/-1/-6 -1/-8/-5 -2/-10/-4 
f -2/-10/-3 -40/-2/-2 -38/-1/-1 
# 92 faces

