# 3ds Max Wavefront OBJ Exporter v0.97b - (c)2007 guruware
# File Created: 11.02.2013 16:46:44

#
# object inner_corner
#

v  0.50 1.00 0.50
v  0.50 1.00 -0.00
v  0.00 1.00 0.50
v  0.50 1.00 -0.50
v  -0.50 1.00 0.50
v  -0.50 1.00 0.25
v  0.25 1.00 -0.50
v  -0.50 1.05 0.20
v  0.20 1.05 -0.50
v  -0.50 1.05 0.00
v  0.00 1.05 -0.50
v  -0.50 1.15 -0.05
v  -0.05 1.15 -0.50
v  -0.10 1.05 -0.50
v  -0.50 1.05 -0.10
v  -0.05 0.85 -0.50
v  -0.50 0.85 -0.05
v  -0.00 0.80 -0.50
v  -0.50 0.80 -0.00
v  -0.00 0.60 -0.50
v  -0.50 0.60 -0.00
v  -0.00 0.40 -0.50
v  -0.50 0.40 -0.00
v  -0.00 0.20 -0.50
v  -0.50 0.20 -0.00
v  -0.05 0.15 -0.50
v  -0.50 0.15 -0.05
v  -0.05 0.00 -0.50
v  -0.50 0.00 -0.05
v  0.32 1.00 0.18
v  0.25 1.00 0.25
v  0.18 1.00 0.32
v  0.07 1.00 -0.07
v  -0.00 1.00 -0.00
v  -0.07 1.00 0.07
v  -0.06 1.00 -0.19
v  -0.13 1.00 -0.13
v  -0.19 1.00 -0.06
v  -0.08 1.05 -0.22
v  -0.15 1.05 -0.15
v  -0.22 1.05 -0.08
v  -0.18 1.05 -0.32
v  -0.21 1.05 -0.21
v  -0.32 1.05 -0.19
v  -0.20 1.15 -0.35
v  -0.24 1.15 -0.24
v  -0.34 1.15 -0.21
v  -0.23 1.05 -0.37
v  -0.26 1.05 -0.26
v  -0.36 1.05 -0.24
v  -0.20 0.85 -0.35
v  -0.24 0.85 -0.24
v  -0.34 0.85 -0.21
v  -0.18 0.80 -0.32
v  -0.21 0.80 -0.21
v  -0.31 0.80 -0.19
v  -0.18 0.60 -0.32
v  -0.21 0.60 -0.21
v  -0.31 0.60 -0.19
v  -0.18 0.40 -0.32
v  -0.21 0.40 -0.21
v  -0.31 0.40 -0.19
v  -0.18 0.20 -0.32
v  -0.21 0.20 -0.21
v  -0.31 0.20 -0.19
v  -0.20 0.15 -0.35
v  -0.24 0.15 -0.24
v  -0.34 0.15 -0.21
v  -0.20 0.00 -0.35
v  -0.24 0.00 -0.24
v  -0.34 0.00 -0.21
v  0.50 1.00 0.50
# 72 vertices

vn 0.00 1.00 -0.00
vn 0.00 1.00 -0.00
vn 0.00 1.00 -0.00
vn 0.00 1.00 -0.00
vn 0.00 1.00 -0.00
vn 0.00 1.00 -0.00
vn 0.00 0.00 -0.00
vn 0.00 0.00 -0.00
vn 0.00 0.00 -0.00
vn 0.00 1.00 -0.00
vn 0.00 1.00 -0.00
vn 0.00 1.00 -0.00
vn 0.00 1.00 -0.00
vn 0.00 1.00 -0.00
vn 0.00 1.00 -0.00
vn 0.00 1.00 -0.00
vn 0.00 1.00 -0.00
vn 0.00 1.00 -0.00
vn 0.00 1.00 -0.00
vn 0.00 1.00 -0.00
vn 0.00 1.00 -0.00
vn 0.58 0.57 0.58
vn 0.58 0.57 0.58
vn 0.58 0.57 0.58
vn 0.58 0.57 0.58
vn 0.58 0.57 0.58
vn 0.58 0.57 0.58
vn 0.00 1.00 -0.00
vn 0.00 1.00 -0.00
vn 0.00 1.00 -0.00
vn 0.00 1.00 -0.00
vn 0.00 1.00 -0.00
vn 0.00 1.00 -0.00
vn 0.90 0.30 0.30
vn 0.90 0.30 0.30
vn 0.90 0.30 0.30
vn 0.91 0.30 0.30
vn 0.91 0.30 0.30
vn 0.91 0.30 0.30
vn -0.91 0.30 -0.30
vn -0.91 0.30 -0.30
vn -0.91 0.30 -0.30
vn -0.91 0.30 -0.30
vn -0.91 0.30 -0.30
vn -0.91 0.30 -0.30
vn -0.94 -0.16 -0.31
vn -0.94 -0.16 -0.31
vn -0.94 -0.16 -0.31
vn -0.94 -0.15 -0.31
vn -0.94 -0.15 -0.31
vn -0.94 -0.15 -0.31
vn -0.81 -0.53 -0.27
vn -0.81 -0.53 -0.27
vn -0.81 -0.53 -0.27
vn -0.81 -0.52 -0.26
vn -0.81 -0.52 -0.26
vn -0.81 -0.52 -0.26
vn -0.95 0.00 -0.31
vn -0.95 0.00 -0.31
vn -0.95 0.00 -0.31
vn -0.95 0.00 -0.31
vn -0.95 0.00 -0.31
vn -0.95 0.00 -0.31
vn -0.95 0.00 -0.31
vn -0.95 0.00 -0.31
vn -0.95 0.00 -0.31
vn -0.95 0.00 -0.31
vn -0.95 0.00 -0.31
vn -0.95 0.00 -0.31
vn -0.95 0.00 -0.31
vn -0.95 0.00 -0.31
vn -0.95 0.00 -0.31
vn -0.95 0.00 -0.31
vn -0.95 0.00 -0.31
vn -0.95 0.00 -0.31
vn -0.81 0.53 -0.27
vn -0.81 0.53 -0.27
vn -0.81 0.53 -0.27
vn -0.81 0.52 -0.26
vn -0.81 0.52 -0.26
vn -0.81 0.52 -0.26
vn -0.95 0.00 -0.31
vn -0.95 0.00 -0.31
vn -0.95 0.00 -0.31
vn -0.95 0.00 -0.31
vn -0.95 0.00 -0.31
vn -0.95 0.00 -0.31
vn 0.00 1.00 -0.00
vn 0.00 1.00 -0.00
vn 0.00 1.00 -0.00
vn 0.00 1.00 -0.00
vn 0.00 1.00 -0.00
vn 0.00 1.00 -0.00
vn 0.00 1.00 -0.00
vn 0.00 1.00 -0.00
vn 0.00 1.00 -0.00
vn 0.00 1.00 -0.00
vn 0.00 1.00 -0.00
vn 0.00 1.00 -0.00
vn 0.00 1.00 -0.00
vn 0.00 1.00 -0.00
vn 0.00 1.00 -0.00
vn 0.00 1.00 -0.00
vn 0.00 1.00 -0.00
vn 0.00 1.00 -0.00
vn 0.00 1.00 -0.00
vn 0.00 1.00 -0.00
vn 0.00 1.00 -0.00
vn 0.00 1.00 -0.00
vn 0.00 1.00 -0.00
vn 0.00 1.00 -0.00
vn 0.00 1.00 -0.00
vn 0.00 1.00 -0.00
vn 0.00 1.00 -0.00
vn 0.00 1.00 -0.00
vn 0.00 1.00 -0.00
vn 0.00 1.00 -0.00
vn 0.00 1.00 -0.00
vn 0.00 1.00 -0.00
vn 0.00 1.00 -0.00
vn 0.00 1.00 -0.00
vn 0.00 1.00 -0.00
vn 0.00 1.00 -0.00
vn 0.58 0.57 0.58
vn 0.58 0.57 0.58
vn 0.58 0.57 0.58
vn 0.58 0.57 0.58
vn 0.58 0.57 0.58
vn 0.58 0.57 0.58
vn 0.58 0.57 0.58
vn 0.58 0.57 0.58
vn 0.58 0.57 0.58
vn 0.58 0.57 0.58
vn 0.58 0.57 0.58
vn 0.58 0.57 0.58
vn 0.58 0.57 0.58
vn 0.58 0.57 0.58
vn 0.58 0.57 0.58
vn 0.58 0.57 0.58
vn 0.58 0.57 0.58
vn 0.58 0.57 0.58
vn 0.00 1.00 -0.00
vn 0.00 1.00 -0.00
vn 0.00 1.00 -0.00
vn 0.00 1.00 -0.00
vn 0.00 1.00 -0.00
vn 0.00 1.00 -0.00
vn 0.00 1.00 -0.00
vn 0.00 1.00 -0.00
vn 0.00 1.00 -0.00
vn 0.00 1.00 -0.00
vn 0.00 1.00 -0.00
vn 0.00 1.00 -0.00
vn 0.00 1.00 -0.00
vn 0.00 1.00 -0.00
vn 0.00 1.00 -0.00
vn 0.00 1.00 -0.00
vn 0.00 1.00 -0.00
vn 0.00 1.00 -0.00
vn 0.67 0.34 0.67
vn 0.67 0.34 0.67
vn 0.67 0.34 0.67
vn 0.67 0.34 0.67
vn 0.67 0.34 0.67
vn 0.67 0.34 0.67
vn 0.25 0.30 0.92
vn 0.25 0.30 0.92
vn 0.25 0.30 0.92
vn 0.25 0.30 0.92
vn 0.25 0.30 0.92
vn 0.25 0.30 0.92
vn 0.67 0.34 0.67
vn 0.67 0.34 0.67
vn 0.67 0.34 0.67
vn 0.67 0.34 0.67
vn 0.67 0.34 0.67
vn 0.67 0.34 0.67
vn -0.67 0.33 -0.67
vn -0.67 0.33 -0.67
vn -0.67 0.33 -0.67
vn -0.67 0.33 -0.67
vn -0.67 0.33 -0.67
vn -0.67 0.33 -0.67
vn -0.25 0.29 -0.92
vn -0.25 0.29 -0.92
vn -0.25 0.29 -0.92
vn -0.25 0.29 -0.92
vn -0.25 0.29 -0.92
vn -0.25 0.29 -0.92
vn -0.67 0.33 -0.67
vn -0.67 0.33 -0.67
vn -0.67 0.33 -0.67
vn -0.67 0.33 -0.67
vn -0.67 0.33 -0.67
vn -0.67 0.33 -0.67
vn -0.70 -0.17 -0.70
vn -0.70 -0.17 -0.70
vn -0.70 -0.17 -0.70
vn -0.70 -0.17 -0.70
vn -0.70 -0.17 -0.70
vn -0.70 -0.17 -0.70
vn -0.26 -0.15 -0.95
vn -0.26 -0.15 -0.95
vn -0.26 -0.15 -0.95
vn -0.26 -0.15 -0.95
vn -0.26 -0.15 -0.95
vn -0.26 -0.15 -0.95
vn -0.70 -0.17 -0.70
vn -0.70 -0.17 -0.70
vn -0.70 -0.17 -0.70
vn -0.70 -0.17 -0.70
vn -0.70 -0.17 -0.70
vn -0.70 -0.17 -0.70
vn -0.58 -0.57 -0.58
vn -0.58 -0.57 -0.58
vn -0.58 -0.57 -0.58
vn -0.58 -0.57 -0.58
vn -0.58 -0.57 -0.58
vn -0.58 -0.57 -0.58
vn -0.23 -0.52 -0.83
vn -0.23 -0.52 -0.83
vn -0.23 -0.52 -0.83
vn -0.23 -0.52 -0.82
vn -0.23 -0.52 -0.82
vn -0.23 -0.52 -0.82
vn -0.58 -0.57 -0.58
vn -0.58 -0.57 -0.58
vn -0.58 -0.57 -0.58
vn -0.58 -0.57 -0.58
vn -0.58 -0.57 -0.58
vn -0.58 -0.57 -0.58
vn -0.71 0.00 -0.71
vn -0.71 0.00 -0.71
vn -0.71 0.00 -0.71
vn -0.71 0.00 -0.71
vn -0.71 0.00 -0.71
vn -0.71 0.00 -0.71
vn -0.26 0.00 -0.96
vn -0.26 0.00 -0.96
vn -0.26 0.00 -0.96
vn -0.26 0.00 -0.96
vn -0.26 0.00 -0.96
vn -0.26 0.00 -0.96
vn -0.71 0.00 -0.71
vn -0.71 0.00 -0.71
vn -0.71 0.00 -0.71
vn -0.71 0.00 -0.71
vn -0.71 0.00 -0.71
vn -0.71 0.00 -0.71
vn -0.71 0.00 -0.71
vn -0.71 0.00 -0.71
vn -0.71 0.00 -0.71
vn -0.71 0.00 -0.71
vn -0.71 0.00 -0.71
vn -0.71 0.00 -0.71
vn -0.26 0.00 -0.96
vn -0.26 0.00 -0.96
vn -0.26 0.00 -0.96
vn -0.26 0.00 -0.96
vn -0.26 0.00 -0.96
vn -0.26 0.00 -0.96
vn -0.71 0.00 -0.71
vn -0.71 0.00 -0.71
vn -0.71 0.00 -0.71
vn -0.71 0.00 -0.71
vn -0.71 0.00 -0.71
vn -0.71 0.00 -0.71
vn -0.71 0.00 -0.71
vn -0.71 0.00 -0.71
vn -0.71 0.00 -0.71
vn -0.71 0.00 -0.71
vn -0.71 0.00 -0.71
vn -0.71 0.00 -0.71
vn -0.26 0.00 -0.96
vn -0.26 0.00 -0.96
vn -0.26 0.00 -0.96
vn -0.26 0.00 -0.96
vn -0.26 0.00 -0.96
vn -0.26 0.00 -0.96
vn -0.71 0.00 -0.71
vn -0.71 0.00 -0.71
vn -0.71 0.00 -0.71
vn -0.71 0.00 -0.71
vn -0.71 0.00 -0.71
vn -0.71 0.00 -0.71
vn -0.58 0.57 -0.58
vn -0.58 0.57 -0.58
vn -0.58 0.57 -0.58
vn -0.58 0.57 -0.58
vn -0.58 0.57 -0.58
vn -0.58 0.57 -0.58
vn -0.23 0.52 -0.83
vn -0.23 0.52 -0.83
vn -0.23 0.52 -0.83
vn -0.23 0.52 -0.82
vn -0.23 0.52 -0.82
vn -0.23 0.52 -0.82
vn -0.58 0.57 -0.58
vn -0.58 0.57 -0.58
vn -0.58 0.57 -0.58
vn -0.58 0.57 -0.58
vn -0.58 0.57 -0.58
vn -0.58 0.57 -0.58
vn -0.71 0.00 -0.71
vn -0.71 0.00 -0.71
vn -0.71 0.00 -0.71
vn -0.71 0.00 -0.71
vn -0.71 0.00 -0.71
vn -0.71 0.00 -0.71
vn -0.26 0.00 -0.96
vn -0.26 0.00 -0.96
vn -0.26 0.00 -0.96
vn -0.26 0.00 -0.96
vn -0.26 0.00 -0.96
vn -0.26 0.00 -0.96
vn -0.71 0.00 -0.71
vn -0.71 0.00 -0.71
vn -0.71 0.00 -0.71
vn -0.71 0.00 -0.71
vn -0.71 0.00 -0.71
vn -0.71 0.00 -0.71
vn 0.00 1.00 -0.00
vn 0.00 1.00 -0.00
vn 0.00 1.00 -0.00
vn 0.00 1.00 -0.00
vn 0.00 1.00 -0.00
vn 0.00 1.00 -0.00
# 327 vertex normals

vt 0.41 0.96 0.00
vt 0.26 0.96 0.00
vt 0.43 0.96 0.00
vt 0.49 0.96 0.00
vt 0.51 0.96 0.00
vt 0.44 0.96 0.00
vt 0.50 0.96 0.00
vt 0.43 0.94 0.00
vt 0.50 0.94 0.00
vt 0.43 0.91 0.00
vt 0.50 0.91 0.00
vt 0.40 0.86 0.00
vt 0.50 0.86 0.00
vt 0.40 0.77 0.00
vt 0.50 0.77 0.00
vt 0.40 0.69 0.00
vt 0.50 0.69 0.00
vt 0.40 0.57 0.00
vt 0.50 0.57 0.00
vt 0.40 0.49 0.00
vt 0.50 0.49 0.00
vt 0.40 0.37 0.00
vt 0.50 0.37 0.00
vt 0.40 0.26 0.00
vt 0.50 0.26 0.00
vt 0.40 0.14 0.00
vt 0.50 0.14 0.00
vt 0.40 0.09 0.00
vt 0.50 0.09 0.00
vt 0.40 0.00 0.00
vt 0.50 0.00 0.00
vt 0.55 0.96 0.00
vt 0.90 0.96 0.00
vt 0.67 0.96 0.00
vt 0.56 0.96 0.00
vt 0.08 0.96 0.00
vt 0.57 0.94 0.00
vt 0.87 0.94 0.00
vt 0.13 0.94 0.00
vt 0.56 0.91 0.00
vt 0.85 0.91 0.00
vt 0.15 0.91 0.00
vt 0.60 0.86 0.00
vt 0.75 0.86 0.00
vt 0.25 0.86 0.00
vt 0.60 0.77 0.00
vt 0.73 0.77 0.00
vt 0.28 0.77 0.00
vt 0.60 0.69 0.00
vt 0.70 0.69 0.00
vt 0.30 0.69 0.00
vt 0.60 0.57 0.00
vt 0.73 0.57 0.00
vt 0.28 0.57 0.00
vt 0.60 0.49 0.00
vt 0.75 0.49 0.00
vt 0.25 0.49 0.00
vt 0.60 0.37 0.00
vt 0.75 0.37 0.00
vt 0.25 0.37 0.00
vt 0.60 0.26 0.00
vt 0.75 0.26 0.00
vt 0.25 0.26 0.00
vt 0.60 0.14 0.00
vt 0.75 0.14 0.00
vt 0.25 0.14 0.00
vt 0.60 0.09 0.00
vt 0.73 0.09 0.00
vt 0.28 0.09 0.00
vt 0.60 0.00 0.00
vt 0.73 0.00 0.00
vt 0.28 0.00 0.00
# 72 texture coords

g inner_corner
f -72/-72/-327 -71/-71/-326 -43/-70/-325 
f -72/-72/-324 -43/-70/-323 -42/-69/-322 
f -72/-72/-321 -42/-69/-320 -1/-68/-319 
f -39/-66/-318 -42/-69/-317 -43/-70/-316 
f -43/-70/-315 -40/-67/-314 -39/-66/-313 
f -37/-65/-312 -36/-64/-311 -39/-66/-310 
f -39/-66/-309 -40/-67/-308 -37/-65/-307 
f -34/-63/-306 -33/-62/-305 -36/-64/-304 
f -36/-64/-303 -37/-65/-302 -34/-63/-301 
f -31/-61/-300 -30/-60/-299 -33/-62/-298 
f -33/-62/-297 -34/-63/-296 -31/-61/-295 
f -28/-59/-294 -27/-58/-293 -30/-60/-292 
f -30/-60/-291 -31/-61/-290 -28/-59/-289 
f -25/-57/-288 -24/-56/-287 -27/-58/-286 
f -27/-58/-285 -28/-59/-284 -25/-57/-283 
f -21/-54/-282 -24/-56/-281 -25/-57/-280 
f -25/-57/-279 -22/-55/-278 -21/-54/-277 
f -18/-52/-276 -21/-54/-275 -22/-55/-274 
f -22/-55/-273 -19/-53/-272 -18/-52/-271 
f -15/-50/-270 -18/-52/-269 -19/-53/-268 
f -19/-53/-267 -16/-51/-266 -15/-50/-265 
f -12/-48/-264 -15/-50/-263 -16/-51/-262 
f -16/-51/-261 -13/-49/-260 -12/-48/-259 
f -9/-46/-258 -12/-48/-257 -13/-49/-256 
f -13/-49/-255 -10/-47/-254 -9/-46/-253 
f -7/-45/-252 -6/-44/-251 -9/-46/-250 
f -9/-46/-249 -10/-47/-248 -7/-45/-247 
f -3/-42/-246 -6/-44/-245 -7/-45/-244 
f -7/-45/-243 -4/-43/-242 -3/-42/-241 
f -38/-41/-240 -68/-40/-239 -70/-39/-238 
f -70/-39/-237 -41/-38/-236 -38/-41/-235 
f -39/-66/-234 -38/-41/-233 -41/-38/-232 
f -41/-38/-231 -42/-69/-230 -39/-66/-229 
f -71/-71/-228 -69/-37/-227 -40/-67/-226 
f -40/-67/-225 -43/-70/-224 -71/-71/-223 
f -67/-35/-222 -68/-40/-221 -38/-41/-220 
f -38/-41/-219 -35/-36/-218 -67/-35/-217 
f -35/-36/-216 -38/-41/-215 -39/-66/-214 
f -39/-66/-213 -36/-64/-212 -35/-36/-211 
f -40/-67/-210 -69/-37/-209 -66/-34/-208 
f -66/-34/-207 -37/-65/-206 -40/-67/-205 
f -65/-32/-204 -67/-35/-203 -35/-36/-202 
f -35/-36/-201 -32/-33/-200 -65/-32/-199 
f -32/-33/-198 -35/-36/-197 -36/-64/-196 
f -36/-64/-195 -33/-62/-194 -32/-33/-193 
f -37/-65/-192 -66/-34/-191 -64/-31/-190 
f -64/-31/-189 -34/-63/-188 -37/-65/-187 
f -63/-29/-186 -65/-32/-185 -32/-33/-184 
f -32/-33/-183 -29/-30/-182 -63/-29/-181 
f -29/-30/-180 -32/-33/-179 -33/-62/-178 
f -33/-62/-177 -30/-60/-176 -29/-30/-175 
f -34/-63/-174 -64/-31/-173 -62/-28/-172 
f -62/-28/-171 -31/-61/-170 -34/-63/-169 
f -61/-26/-168 -63/-29/-167 -29/-30/-166 
f -29/-30/-165 -26/-27/-164 -61/-26/-163 
f -26/-27/-162 -29/-30/-161 -30/-60/-160 
f -30/-60/-159 -27/-58/-158 -26/-27/-157 
f -31/-61/-156 -62/-28/-155 -60/-25/-154 
f -60/-25/-153 -28/-59/-152 -31/-61/-151 
f -58/-23/-150 -61/-26/-149 -26/-27/-148 
f -26/-27/-147 -23/-24/-146 -58/-23/-145 
f -23/-24/-144 -26/-27/-143 -27/-58/-142 
f -27/-58/-141 -24/-56/-140 -23/-24/-139 
f -28/-59/-138 -60/-25/-137 -59/-22/-136 
f -59/-22/-135 -25/-57/-134 -28/-59/-133 
f -20/-21/-132 -56/-20/-131 -58/-23/-130 
f -58/-23/-129 -23/-24/-128 -20/-21/-127 
f -21/-54/-126 -20/-21/-125 -23/-24/-124 
f -23/-24/-123 -24/-56/-122 -21/-54/-121 
f -59/-22/-120 -57/-19/-119 -22/-55/-118 
f -22/-55/-117 -25/-57/-116 -59/-22/-115 
f -17/-18/-114 -54/-17/-113 -56/-20/-112 
f -56/-20/-111 -20/-21/-110 -17/-18/-109 
f -18/-52/-108 -17/-18/-107 -20/-21/-106 
f -20/-21/-105 -21/-54/-104 -18/-52/-103 
f -57/-19/-102 -55/-16/-101 -19/-53/-100 
f -19/-53/-99 -22/-55/-98 -57/-19/-97 
f -52/-14/-96 -54/-17/-95 -17/-18/-94 
f -17/-18/-93 -14/-15/-92 -52/-14/-91 
f -14/-15/-90 -17/-18/-89 -18/-52/-88 
f -18/-52/-87 -15/-50/-86 -14/-15/-85 
f -55/-16/-84 -53/-13/-83 -16/-51/-82 
f -16/-51/-81 -19/-53/-80 -55/-16/-79 
f -50/-11/-78 -52/-14/-77 -14/-15/-76 
f -14/-15/-75 -11/-12/-74 -50/-11/-73 
f -11/-12/-72 -14/-15/-71 -15/-50/-70 
f -15/-50/-69 -12/-48/-68 -11/-12/-67 
f -53/-13/-66 -51/-10/-65 -13/-49/-64 
f -13/-49/-63 -16/-51/-62 -53/-13/-61 
f -48/-8/-60 -50/-11/-59 -11/-12/-58 
f -11/-12/-57 -8/-9/-56 -48/-8/-55 
f -8/-9/-54 -11/-12/-53 -12/-48/-52 
f -12/-48/-51 -9/-46/-50 -8/-9/-49 
f -51/-10/-48 -49/-7/-47 -10/-47/-46 
f -10/-47/-45 -13/-49/-44 -51/-10/-43 
f -46/-5/-42 -48/-8/-41 -8/-9/-40 
f -8/-9/-39 -5/-6/-38 -46/-5/-37 
f -5/-6/-36 -8/-9/-35 -9/-46/-34 
f -9/-46/-33 -6/-44/-32 -5/-6/-31 
f -10/-47/-30 -49/-7/-29 -47/-4/-28 
f -47/-4/-27 -7/-45/-26 -10/-47/-25 
f -44/-2/-24 -46/-5/-23 -5/-6/-22 
f -5/-6/-21 -2/-3/-20 -44/-2/-19 
f -2/-3/-18 -5/-6/-17 -6/-44/-16 
f -6/-44/-15 -3/-42/-14 -2/-3/-13 
f -47/-4/-12 -45/-1/-11 -4/-43/-10 
f -4/-43/-9 -7/-45/-8 -47/-4/-7 
f -1/-68/-6 -42/-69/-5 -41/-38/-4 
f -41/-38/-3 -70/-39/-2 -1/-68/-1 
# 109 faces

