# 3ds Max Wavefront OBJ Exporter v0.97b - (c)2007 guruware
# File Created: 29.01.2013 02:23:09

#
# object bridge
#

v  -0.00 0.00 -0.50
v  -0.00 1.00 -0.50
v  -0.00 0.20 -0.50
v  -0.00 0.40 -0.50
v  -0.00 0.60 -0.50
v  -0.00 0.80 -0.50
v  0.50 0.00 -0.00
v  0.50 1.00 -0.00
v  0.50 0.20 -0.00
v  0.50 0.40 -0.00
v  0.50 0.60 -0.00
v  0.50 0.80 -0.00
v  0.00 0.00 0.50
v  0.00 1.00 0.50
v  0.50 1.00 0.50
v  0.00 1.00 -0.00
v  0.00 0.20 0.50
v  0.00 0.40 0.50
v  0.00 0.60 0.50
v  0.00 0.80 0.50
v  -0.50 0.00 -0.00
v  -0.50 1.00 -0.00
v  -0.50 1.00 -0.50
v  -0.50 0.20 -0.00
v  -0.50 0.40 -0.00
v  -0.50 0.60 -0.00
v  -0.50 0.80 -0.00
# 27 vertices

vn 0.71 0.00 -0.71
vn 0.71 0.00 -0.71
vn 0.71 0.00 -0.71
vn 0.71 0.00 -0.71
vn 0.71 0.00 -0.71
vn 0.71 0.00 -0.71
vn 0.71 0.00 -0.71
vn 0.71 0.00 -0.71
vn 0.71 0.00 -0.71
vn 0.71 0.00 -0.71
vn 0.71 0.00 -0.71
vn 0.71 0.00 -0.71
vn 0.71 0.00 -0.71
vn 0.71 0.00 -0.71
vn 0.71 0.00 -0.71
vn 0.71 0.00 -0.71
vn 0.71 0.00 -0.71
vn 0.71 0.00 -0.71
vn 0.71 0.00 -0.71
vn 0.71 0.00 -0.71
vn 0.71 0.00 -0.71
vn 0.71 0.00 -0.71
vn 0.71 0.00 -0.71
vn 0.71 0.00 -0.71
vn 0.71 0.00 -0.71
vn 0.71 0.00 -0.71
vn 0.71 0.00 -0.71
vn 0.71 0.00 -0.71
vn 0.71 0.00 -0.71
vn 0.71 0.00 -0.71
vn 0.00 1.00 -0.00
vn 0.00 1.00 -0.00
vn 0.00 1.00 -0.00
vn 0.00 1.00 -0.00
vn 0.00 1.00 -0.00
vn 0.00 1.00 -0.00
vn 0.00 1.00 -0.00
vn 0.00 1.00 -0.00
vn 0.00 1.00 -0.00
vn 0.00 1.00 -0.00
vn 0.00 1.00 -0.00
vn 0.00 1.00 -0.00
vn 0.00 1.00 -0.00
vn 0.00 1.00 -0.00
vn 0.00 1.00 -0.00
vn 0.00 1.00 -0.00
vn 0.00 1.00 -0.00
vn 0.00 1.00 -0.00
vn -0.71 0.00 0.71
vn -0.71 0.00 0.71
vn -0.71 0.00 0.71
vn -0.71 0.00 0.71
vn -0.71 0.00 0.71
vn -0.71 0.00 0.71
vn -0.71 0.00 0.71
vn -0.71 0.00 0.71
vn -0.71 0.00 0.71
vn -0.71 0.00 0.71
vn -0.71 0.00 0.71
vn -0.71 0.00 0.71
vn -0.71 0.00 0.71
vn -0.71 0.00 0.71
vn -0.71 0.00 0.71
vn -0.71 0.00 0.71
vn -0.71 0.00 0.71
vn -0.71 0.00 0.71
vn -0.71 0.00 0.71
vn -0.71 0.00 0.71
vn -0.71 0.00 0.71
vn -0.71 0.00 0.71
vn -0.71 0.00 0.71
vn -0.71 0.00 0.71
vn -0.71 0.00 0.71
vn -0.71 0.00 0.71
vn -0.71 0.00 0.71
vn -0.71 0.00 0.71
vn -0.71 0.00 0.71
vn -0.71 0.00 0.71
# 78 vertex normals

vt 0.50 0.00 0.00
vt 0.50 0.20 0.00
vt 0.50 0.40 0.00
vt 0.50 0.60 0.00
vt 0.50 0.80 0.00
vt 0.50 1.00 0.00
vt 0.33 0.00 0.00
vt 0.33 1.00 0.00
vt 0.33 0.20 0.00
vt 0.33 0.40 0.00
vt 0.33 0.60 0.00
vt 0.33 0.80 0.00
vt 0.50 0.00 0.00
vt 0.67 0.00 0.00
vt 0.50 0.17 0.00
vt 0.67 0.17 0.00
vt 0.50 0.00 0.00
vt 0.50 0.20 0.00
vt 0.50 0.40 0.00
vt 0.50 0.60 0.00
vt 0.50 0.80 0.00
vt 0.50 1.00 0.00
vt 0.33 0.00 0.00
vt 0.33 0.08 0.00
vt 0.33 1.00 0.00
vt 0.33 0.33 0.00
vt 0.58 0.33 0.00
vt 0.33 0.20 0.00
vt 0.33 0.40 0.00
vt 0.33 0.60 0.00
vt 0.33 0.80 0.00
# 31 texture coords

g bridge
f -21/-25/-78 -27/-31/-77 -25/-30/-76 
f -25/-30/-75 -19/-23/-74 -21/-25/-73 
f -19/-23/-72 -25/-30/-71 -24/-29/-70 
f -24/-29/-69 -18/-22/-68 -19/-23/-67 
f -18/-22/-66 -24/-29/-65 -23/-28/-64 
f -23/-28/-63 -17/-21/-62 -18/-22/-61 
f -17/-21/-60 -23/-28/-59 -22/-27/-58 
f -22/-27/-57 -16/-20/-56 -17/-21/-55 
f -16/-20/-54 -22/-27/-53 -26/-26/-52 
f -26/-26/-51 -20/-24/-50 -16/-20/-49 
f -6/-8/-48 -14/-19/-47 -12/-17/-46 
f -14/-19/-45 -13/-18/-44 -20/-16/-43 
f -20/-16/-42 -12/-17/-41 -14/-19/-40 
f -6/-8/-39 -12/-17/-38 -26/-5/-37 
f -26/-5/-36 -5/-6/-35 -6/-8/-34 
f -12/-17/-33 -20/-16/-32 -26/-5/-31 
f -7/-9/-30 -15/-15/-29 -11/-14/-28 
f -11/-14/-27 -4/-4/-26 -7/-9/-25 
f -4/-4/-24 -11/-14/-23 -10/-13/-22 
f -10/-13/-21 -3/-3/-20 -4/-4/-19 
f -3/-3/-18 -10/-13/-17 -9/-12/-16 
f -9/-12/-15 -2/-2/-14 -3/-3/-13 
f -2/-2/-12 -9/-12/-11 -8/-11/-10 
f -8/-11/-9 -1/-1/-8 -2/-2/-7 
f -1/-1/-6 -8/-11/-5 -14/-10/-4 
f -14/-10/-3 -6/-7/-2 -1/-1/-1 
# 26 faces

