# 3ds Max Wavefront OBJ Exporter v0.97b - (c)2007 guruware
# File Created: 19.01.2013 22:19:07

#
# object Cube_Smooth_1
#

v  -0.50 -0.00 0.50
v  -0.25 -0.00 0.50
v  0.25 -0.00 0.50
v  0.50 -0.00 0.50
v  -0.50 -0.00 0.25
v  -0.25 -0.00 0.25
v  0.25 -0.00 0.25
v  0.50 -0.00 0.25
v  -0.50 -0.00 -0.25
v  -0.25 -0.00 -0.25
v  0.25 -0.00 -0.25
v  0.50 -0.00 -0.25
v  -0.50 -0.00 -0.50
v  -0.25 -0.00 -0.50
v  0.25 -0.00 -0.50
v  0.50 -0.00 -0.50
v  -0.50 1.00 0.50
v  -0.25 1.00 0.50
v  0.25 1.00 0.50
v  0.50 1.00 0.50
v  -0.50 1.00 0.25
v  -0.25 1.00 0.25
v  0.25 1.00 0.25
v  0.50 1.00 0.25
v  -0.50 1.00 -0.25
v  -0.25 1.00 -0.25
v  0.25 1.00 -0.25
v  0.50 1.00 -0.25
v  -0.50 1.00 -0.50
v  -0.25 1.00 -0.50
v  0.25 1.00 -0.50
v  0.50 1.00 -0.50
v  -0.50 0.25 0.50
v  -0.25 0.25 0.50
v  0.25 0.25 0.50
v  0.50 0.25 0.50
v  0.50 0.25 0.25
v  0.50 0.25 -0.25
v  0.50 0.25 -0.50
v  0.25 0.25 -0.50
v  -0.25 0.25 -0.50
v  -0.50 0.25 -0.50
v  -0.50 0.25 -0.25
v  -0.50 0.25 0.25
v  -0.50 0.75 0.50
v  -0.25 0.75 0.50
v  0.25 0.75 0.50
v  0.50 0.75 0.50
v  0.50 0.75 0.25
v  0.50 0.75 -0.25
v  0.50 0.75 -0.50
v  0.25 0.75 -0.50
v  -0.25 0.75 -0.50
v  -0.50 0.75 -0.50
v  -0.50 0.75 -0.25
v  -0.50 0.75 0.25
# 56 vertices

vn 0.00 -1.00 -0.00
vn 0.00 -1.00 -0.00
vn 0.00 -1.00 -0.00
vn 0.00 -1.00 -0.00
vn 0.00 -1.00 -0.00
vn 0.00 -1.00 -0.00
vn 0.00 -1.00 -0.00
vn 0.00 -1.00 -0.00
vn 0.00 -1.00 -0.00
vn 0.00 -1.00 -0.00
vn 0.00 -1.00 -0.00
vn 0.00 -1.00 -0.00
vn 0.00 -1.00 -0.00
vn 0.00 -1.00 -0.00
vn 0.00 -1.00 -0.00
vn 0.00 -1.00 -0.00
vn 0.00 -1.00 -0.00
vn 0.00 -1.00 -0.00
vn 0.00 -1.00 -0.00
vn 0.00 -1.00 -0.00
vn 0.00 -1.00 -0.00
vn 0.00 -1.00 -0.00
vn 0.00 -1.00 -0.00
vn 0.00 -1.00 -0.00
vn 0.00 -1.00 -0.00
vn 0.00 -1.00 -0.00
vn 0.00 -1.00 -0.00
vn 0.00 -1.00 -0.00
vn 0.00 -1.00 -0.00
vn 0.00 -1.00 -0.00
vn 0.00 -1.00 -0.00
vn 0.00 -1.00 -0.00
vn 0.00 -1.00 -0.00
vn 0.00 -1.00 -0.00
vn 0.00 -1.00 -0.00
vn 0.00 -1.00 -0.00
vn 0.00 -1.00 -0.00
vn 0.00 -1.00 -0.00
vn 0.00 -1.00 -0.00
vn 0.00 -1.00 -0.00
vn 0.00 -1.00 -0.00
vn 0.00 -1.00 -0.00
vn 0.00 -1.00 -0.00
vn 0.00 -1.00 -0.00
vn 0.00 -1.00 -0.00
vn 0.00 -1.00 -0.00
vn 0.00 -1.00 -0.00
vn 0.00 -1.00 -0.00
vn 0.00 -1.00 -0.00
vn 0.00 -1.00 -0.00
vn 0.00 -1.00 -0.00
vn 0.00 -1.00 -0.00
vn 0.00 -1.00 -0.00
vn 0.00 -1.00 -0.00
vn 0.00 1.00 -0.00
vn 0.00 1.00 -0.00
vn 0.00 1.00 0.00
vn 0.00 1.00 0.00
vn 0.00 1.00 0.00
vn 0.00 1.00 -0.00
vn 0.00 1.00 -0.00
vn 0.00 1.00 -0.00
vn 0.00 1.00 0.00
vn 0.00 1.00 0.00
vn 0.00 1.00 0.00
vn 0.00 1.00 -0.00
vn 0.00 1.00 -0.00
vn 0.00 1.00 -0.00
vn 0.00 1.00 0.00
vn 0.00 1.00 0.00
vn 0.00 1.00 0.00
vn 0.00 1.00 -0.00
vn 0.00 1.00 0.00
vn 0.00 1.00 0.00
vn 0.00 1.00 0.00
vn 0.00 1.00 0.00
vn 0.00 1.00 0.00
vn 0.00 1.00 0.00
vn 0.00 1.00 0.00
vn 0.00 1.00 0.00
vn 0.00 1.00 0.00
vn 0.00 1.00 0.00
vn 0.00 1.00 0.00
vn 0.00 1.00 0.00
vn 0.00 1.00 0.00
vn 0.00 1.00 0.00
vn 0.00 1.00 0.00
vn 0.00 1.00 0.00
vn 0.00 1.00 0.00
vn 0.00 1.00 0.00
vn 0.00 1.00 0.00
vn 0.00 1.00 0.00
vn 0.00 1.00 -0.00
vn 0.00 1.00 -0.00
vn 0.00 1.00 -0.00
vn 0.00 1.00 0.00
vn 0.00 1.00 0.00
vn 0.00 1.00 0.00
vn 0.00 1.00 -0.00
vn 0.00 1.00 -0.00
vn 0.00 1.00 -0.00
vn 0.00 1.00 0.00
vn 0.00 1.00 0.00
vn 0.00 1.00 0.00
vn 0.00 1.00 -0.00
vn 0.00 1.00 -0.00
vn 0.00 1.00 -0.00
vn 0.00 1.00 0.00
vn 0.00 0.00 1.00
vn -0.00 0.00 1.00
vn -0.00 0.00 1.00
vn -0.00 0.00 1.00
vn 0.00 -0.00 1.00
vn 0.00 0.00 1.00
vn -0.00 0.00 1.00
vn -0.00 -0.00 1.00
vn -0.00 0.00 1.00
vn -0.00 0.00 1.00
vn -0.00 0.00 1.00
vn -0.00 0.00 1.00
vn -0.00 -0.00 1.00
vn 0.00 -0.00 1.00
vn 0.00 0.00 1.00
vn 0.00 0.00 1.00
vn -0.00 0.00 1.00
vn -0.00 -0.00 1.00
vn 0.00 -0.00 1.00
vn -0.00 0.00 1.00
vn 0.00 0.00 1.00
vn 0.00 0.00 1.00
vn 0.00 0.00 1.00
vn 0.00 -0.00 1.00
vn -0.00 0.00 1.00
vn -0.00 0.00 1.00
vn -0.00 0.00 1.00
vn -0.00 0.00 1.00
vn 0.00 0.00 1.00
vn -0.00 0.00 1.00
vn -0.00 0.00 1.00
vn 0.00 0.00 1.00
vn -0.00 0.00 1.00
vn -0.00 0.00 1.00
vn -0.00 0.00 1.00
vn -0.00 0.00 1.00
vn 0.00 0.00 1.00
vn 0.00 0.00 1.00
vn 0.00 0.00 1.00
vn 0.00 0.00 1.00
vn 0.00 0.00 1.00
vn 0.00 0.00 1.00
vn 0.00 0.00 1.00
vn -0.00 0.00 1.00
vn 0.00 0.00 1.00
vn 0.00 0.00 1.00
vn 0.00 0.00 1.00
vn 0.00 0.00 1.00
vn -0.00 0.00 1.00
vn -0.00 0.00 1.00
vn -0.00 0.00 1.00
vn -0.00 0.00 1.00
vn 0.00 0.00 1.00
vn -0.00 0.00 1.00
vn 1.00 0.00 -0.00
vn 1.00 0.00 -0.00
vn 1.00 0.00 0.00
vn 1.00 0.00 0.00
vn 1.00 0.00 0.00
vn 1.00 0.00 -0.00
vn 1.00 0.00 -0.00
vn 1.00 0.00 0.00
vn 1.00 0.00 0.00
vn 1.00 0.00 0.00
vn 1.00 0.00 0.00
vn 1.00 0.00 -0.00
vn 1.00 0.00 0.00
vn 1.00 0.00 -0.00
vn 1.00 0.00 0.00
vn 1.00 0.00 0.00
vn 1.00 0.00 0.00
vn 1.00 0.00 0.00
vn 1.00 0.00 0.00
vn 1.00 0.00 0.00
vn 1.00 0.00 0.00
vn 1.00 0.00 0.00
vn 1.00 -0.00 0.00
vn 1.00 0.00 0.00
vn 1.00 0.00 0.00
vn 1.00 0.00 0.00
vn 1.00 0.00 -0.00
vn 1.00 0.00 -0.00
vn 1.00 0.00 0.00
vn 1.00 0.00 0.00
vn 1.00 0.00 0.00
vn 1.00 0.00 0.00
vn 1.00 0.00 0.00
vn 1.00 0.00 0.00
vn 1.00 0.00 -0.00
vn 1.00 0.00 0.00
vn 1.00 -0.00 0.00
vn 1.00 0.00 0.00
vn 1.00 -0.00 -0.00
vn 1.00 -0.00 -0.00
vn 1.00 -0.00 -0.00
vn 1.00 -0.00 0.00
vn 1.00 0.00 0.00
vn 1.00 0.00 -0.00
vn 1.00 -0.00 -0.00
vn 1.00 -0.00 -0.00
vn 1.00 -0.00 -0.00
vn 1.00 0.00 0.00
vn 1.00 0.00 -0.00
vn 1.00 0.00 0.00
vn 1.00 0.00 -0.00
vn 1.00 0.00 -0.00
vn 1.00 -0.00 -0.00
vn 1.00 0.00 -0.00
vn 0.00 -0.00 -1.00
vn 0.00 -0.00 -1.00
vn -0.00 -0.00 -1.00
vn -0.00 -0.00 -1.00
vn 0.00 -0.00 -1.00
vn 0.00 -0.00 -1.00
vn 0.00 -0.00 -1.00
vn -0.00 -0.00 -1.00
vn -0.00 -0.00 -1.00
vn -0.00 -0.00 -1.00
vn -0.00 -0.00 -1.00
vn 0.00 -0.00 -1.00
vn -0.00 -0.00 -1.00
vn -0.00 0.00 -1.00
vn -0.00 -0.00 -1.00
vn -0.00 -0.00 -1.00
vn -0.00 -0.00 -1.00
vn -0.00 -0.00 -1.00
vn 0.00 -0.00 -1.00
vn -0.00 -0.00 -1.00
vn -0.00 -0.00 -1.00
vn -0.00 -0.00 -1.00
vn 0.00 0.00 -1.00
vn 0.00 -0.00 -1.00
vn -0.00 -0.00 -1.00
vn -0.00 -0.00 -1.00
vn -0.00 0.00 -1.00
vn -0.00 0.00 -1.00
vn -0.00 -0.00 -1.00
vn -0.00 -0.00 -1.00
vn -0.00 -0.00 -1.00
vn -0.00 -0.00 -1.00
vn -0.00 0.00 -1.00
vn -0.00 0.00 -1.00
vn -0.00 0.00 -1.00
vn -0.00 -0.00 -1.00
vn 0.00 0.00 -1.00
vn -0.00 -0.00 -1.00
vn -0.00 -0.00 -1.00
vn -0.00 -0.00 -1.00
vn 0.00 0.00 -1.00
vn 0.00 0.00 -1.00
vn -0.00 -0.00 -1.00
vn -0.00 0.00 -1.00
vn -0.00 -0.00 -1.00
vn -0.00 -0.00 -1.00
vn -0.00 -0.00 -1.00
vn -0.00 -0.00 -1.00
vn -0.00 0.00 -1.00
vn -0.00 0.00 -1.00
vn 0.00 0.00 -1.00
vn 0.00 0.00 -1.00
vn -0.00 -0.00 -1.00
vn -0.00 0.00 -1.00
vn -1.00 0.00 -0.00
vn -1.00 0.00 -0.00
vn -1.00 -0.00 -0.00
vn -1.00 -0.00 -0.00
vn -1.00 0.00 -0.00
vn -1.00 0.00 -0.00
vn -1.00 0.00 -0.00
vn -1.00 0.00 0.00
vn -1.00 -0.00 0.00
vn -1.00 -0.00 0.00
vn -1.00 -0.00 -0.00
vn -1.00 0.00 -0.00
vn -1.00 0.00 0.00
vn -1.00 0.00 0.00
vn -1.00 -0.00 0.00
vn -1.00 -0.00 0.00
vn -1.00 -0.00 0.00
vn -1.00 0.00 0.00
vn -1.00 0.00 -0.00
vn -1.00 -0.00 -0.00
vn -1.00 -0.00 -0.00
vn -1.00 -0.00 -0.00
vn -1.00 0.00 -0.00
vn -1.00 0.00 -0.00
vn -1.00 -0.00 -0.00
vn -1.00 -0.00 0.00
vn -1.00 0.00 0.00
vn -1.00 0.00 0.00
vn -1.00 -0.00 -0.00
vn -1.00 -0.00 -0.00
vn -1.00 -0.00 0.00
vn -1.00 -0.00 0.00
vn -1.00 0.00 0.00
vn -1.00 0.00 0.00
vn -1.00 0.00 0.00
vn -1.00 -0.00 0.00
vn -1.00 0.00 -0.00
vn -1.00 -0.00 -0.00
vn -1.00 -0.00 -0.00
vn -1.00 -0.00 -0.00
vn -1.00 0.00 -0.00
vn -1.00 0.00 -0.00
vn -1.00 -0.00 -0.00
vn -1.00 0.00 0.00
vn -1.00 0.00 0.00
vn -1.00 0.00 0.00
vn -1.00 -0.00 -0.00
vn -1.00 -0.00 -0.00
vn -1.00 0.00 0.00
vn -1.00 0.00 0.00
vn -1.00 0.00 0.00
vn -1.00 0.00 0.00
vn -1.00 0.00 0.00
vn -1.00 0.00 0.00
# 324 vertex normals

vt 1.00 0.00 0.00
vt 0.67 0.00 0.00
vt 0.33 0.00 0.00
vt -0.00 0.00 0.00
vt 1.00 0.33 0.00
vt 0.67 0.33 0.00
vt 0.33 0.33 0.00
vt -0.00 0.33 0.00
vt 1.00 0.67 0.00
vt 0.67 0.67 0.00
vt 0.33 0.67 0.00
vt -0.00 0.67 0.00
vt 1.00 1.00 0.00
vt 0.67 1.00 0.00
vt 0.33 1.00 0.00
vt -0.00 1.00 0.00
vt 0.00 0.00 0.00
vt 0.33 0.00 0.00
vt 0.67 0.00 0.00
vt 1.00 0.00 0.00
vt 0.00 0.33 0.00
vt 0.33 0.33 0.00
vt 0.67 0.33 0.00
vt 1.00 0.33 0.00
vt 0.00 0.67 0.00
vt 0.33 0.67 0.00
vt 0.67 0.67 0.00
vt 1.00 0.67 0.00
vt 0.00 1.00 0.00
vt 0.33 1.00 0.00
vt 0.67 1.00 0.00
vt 1.00 1.00 0.00
vt 0.00 0.00 0.00
vt 0.33 0.00 0.00
vt 0.67 0.00 0.00
vt 1.00 0.00 0.00
vt 0.00 0.33 0.00
vt 0.33 0.33 0.00
vt 0.67 0.33 0.00
vt 1.00 0.33 0.00
vt 0.00 0.67 0.00
vt 0.33 0.67 0.00
vt 0.67 0.67 0.00
vt 1.00 0.67 0.00
vt 0.00 1.00 0.00
vt 0.33 1.00 0.00
vt 0.67 1.00 0.00
vt 1.00 1.00 0.00
vt 0.00 0.00 0.00
vt 0.33 0.00 0.00
vt 0.67 0.00 0.00
vt 1.00 0.00 0.00
vt 0.00 0.33 0.00
vt 0.33 0.33 0.00
vt 0.67 0.33 0.00
vt 1.00 0.33 0.00
vt 0.00 0.67 0.00
vt 0.33 0.67 0.00
vt 0.67 0.67 0.00
vt 1.00 0.67 0.00
vt 0.00 1.00 0.00
vt 0.33 1.00 0.00
vt 0.67 1.00 0.00
vt 1.00 1.00 0.00
vt 0.00 0.00 0.00
vt 0.33 0.00 0.00
vt 0.67 0.00 0.00
vt 1.00 0.00 0.00
vt 0.00 0.33 0.00
vt 0.33 0.33 0.00
vt 0.67 0.33 0.00
vt 1.00 0.33 0.00
vt 0.00 0.67 0.00
vt 0.33 0.67 0.00
vt 0.67 0.67 0.00
vt 1.00 0.67 0.00
vt 0.00 1.00 0.00
vt 0.33 1.00 0.00
vt 0.67 1.00 0.00
vt 1.00 1.00 0.00
vt 0.00 0.00 0.00
vt 0.33 0.00 0.00
vt 0.67 0.00 0.00
vt 1.00 0.00 0.00
vt 0.00 0.33 0.00
vt 0.33 0.33 0.00
vt 0.67 0.33 0.00
vt 1.00 0.33 0.00
vt 0.00 0.67 0.00
vt 0.33 0.67 0.00
vt 0.67 0.67 0.00
vt 1.00 0.67 0.00
vt 0.00 1.00 0.00
vt 0.33 1.00 0.00
vt 0.67 1.00 0.00
vt 1.00 1.00 0.00
# 96 texture coords

g Cube_Smooth_1
f 1/1/1 5/5/2 6/6/3 
f 6/6/4 2/2/5 1/1/6 
f 2/2/7 6/6/8 7/7/9 
f 7/7/10 3/3/11 2/2/12 
f 3/3/13 7/7/14 8/8/15 
f 8/8/16 4/4/17 3/3/18 
f 5/5/19 9/9/20 10/10/21 
f 10/10/22 6/6/23 5/5/24 
f 6/6/25 10/10/26 11/11/27 
f 11/11/28 7/7/29 6/6/30 
f 7/7/31 11/11/32 12/12/33 
f 12/12/34 8/8/35 7/7/36 
f 9/9/37 13/13/38 14/14/39 
f 14/14/40 10/10/41 9/9/42 
f 10/10/43 14/14/44 15/15/45 
f 15/15/46 11/11/47 10/10/48 
f 11/11/49 15/15/50 16/16/51 
f 16/16/52 12/12/53 11/11/54 
f 17/17/55 18/18/56 22/22/57 
f 22/22/58 21/21/59 17/17/60 
f 18/18/61 19/19/62 23/23/63 
f 23/23/64 22/22/65 18/18/66 
f 19/19/67 20/20/68 24/24/69 
f 24/24/70 23/23/71 19/19/72 
f 21/21/73 22/22/74 26/26/75 
f 26/26/76 25/25/77 21/21/78 
f 22/22/79 23/23/80 27/27/81 
f 27/27/82 26/26/83 22/22/84 
f 23/23/85 24/24/86 28/28/87 
f 28/28/88 27/27/89 23/23/90 
f 25/25/91 26/26/92 30/30/93 
f 30/30/94 29/29/95 25/25/96 
f 26/26/97 27/27/98 31/31/99 
f 31/31/100 30/30/101 26/26/102 
f 27/27/103 28/28/104 32/32/105 
f 32/32/106 31/31/107 27/27/108 
f 1/33/109 2/34/110 34/38/111 
f 34/38/112 33/37/113 1/33/114 
f 2/34/115 3/35/116 35/39/117 
f 35/39/118 34/38/119 2/34/120 
f 3/35/121 4/36/122 36/40/123 
f 36/40/124 35/39/125 3/35/126 
f 33/37/127 34/38/128 46/42/129 
f 46/42/130 45/41/131 33/37/132 
f 34/38/133 35/39/134 47/43/135 
f 47/43/136 46/42/137 34/38/138 
f 35/39/139 36/40/140 48/44/141 
f 48/44/142 47/43/143 35/39/144 
f 45/41/145 46/42/146 18/46/147 
f 18/46/148 17/45/149 45/41/150 
f 46/42/151 47/43/152 19/47/153 
f 19/47/154 18/46/155 46/42/156 
f 47/43/157 48/44/158 20/48/159 
f 20/48/160 19/47/161 47/43/162 
f 4/49/163 8/50/164 37/54/165 
f 37/54/166 36/53/167 4/49/168 
f 8/50/169 12/51/170 38/55/171 
f 38/55/172 37/54/173 8/50/174 
f 12/51/175 16/52/176 39/56/177 
f 39/56/178 38/55/179 12/51/180 
f 36/53/181 37/54/182 49/58/183 
f 49/58/184 48/57/185 36/53/186 
f 37/54/187 38/55/188 50/59/189 
f 50/59/190 49/58/191 37/54/192 
f 38/55/193 39/56/194 51/60/195 
f 51/60/196 50/59/197 38/55/198 
f 48/57/199 49/58/200 24/62/201 
f 24/62/202 20/61/203 48/57/204 
f 49/58/205 50/59/206 28/63/207 
f 28/63/208 24/62/209 49/58/210 
f 50/59/211 51/60/212 32/64/213 
f 32/64/214 28/63/215 50/59/216 
f 16/65/217 15/66/218 40/70/219 
f 40/70/220 39/69/221 16/65/222 
f 15/66/223 14/67/224 41/71/225 
f 41/71/226 40/70/227 15/66/228 
f 14/67/229 13/68/230 42/72/231 
f 42/72/232 41/71/233 14/67/234 
f 39/69/235 40/70/236 52/74/237 
f 52/74/238 51/73/239 39/69/240 
f 40/70/241 41/71/242 53/75/243 
f 53/75/244 52/74/245 40/70/246 
f 41/71/247 42/72/248 54/76/249 
f 54/76/250 53/75/251 41/71/252 
f 51/73/253 52/74/254 31/78/255 
f 31/78/256 32/77/257 51/73/258 
f 52/74/259 53/75/260 30/79/261 
f 30/79/262 31/78/263 52/74/264 
f 53/75/265 54/76/266 29/80/267 
f 29/80/268 30/79/269 53/75/270 
f 13/81/271 9/82/272 43/86/273 
f 43/86/274 42/85/275 13/81/276 
f 9/82/277 5/83/278 44/87/279 
f 44/87/280 43/86/281 9/82/282 
f 5/83/283 1/84/284 33/88/285 
f 33/88/286 44/87/287 5/83/288 
f 42/85/289 43/86/290 55/90/291 
f 55/90/292 54/89/293 42/85/294 
f 43/86/295 44/87/296 56/91/297 
f 56/91/298 55/90/299 43/86/300 
f 44/87/301 33/88/302 45/92/303 
f 45/92/304 56/91/305 44/87/306 
f 54/89/307 55/90/308 25/94/309 
f 25/94/310 29/93/311 54/89/312 
f 55/90/313 56/91/314 21/95/315 
f 21/95/316 25/94/317 55/90/318 
f 56/91/319 45/92/320 17/96/321 
f 17/96/322 21/95/323 56/91/324 
# 108 faces

