# 3ds Max Wavefront OBJ Exporter v0.97b - (c)2007 guruware
# File Created: 19.01.2013 22:24:51

#
# object Cylinder
#

v  -0.50 1.00 -0.00
v  -0.43 1.00 -0.25
v  -0.25 1.00 -0.43
v  0.00 1.00 -0.50
v  0.25 1.00 -0.43
v  0.43 1.00 -0.25
v  0.50 1.00 -0.00
v  0.43 1.00 0.25
v  0.25 1.00 0.43
v  0.00 1.00 0.50
v  -0.25 1.00 0.43
v  -0.43 1.00 0.25
v  -0.50 -0.00 -0.00
v  -0.43 -0.00 -0.25
v  -0.25 0.00 -0.43
v  0.00 0.00 -0.50
v  0.25 0.00 -0.43
v  0.43 0.00 -0.25
v  0.50 0.00 -0.00
v  0.43 0.00 0.25
v  0.25 0.00 0.43
v  0.00 0.00 0.50
v  -0.25 0.00 0.43
v  -0.43 -0.00 0.25
# 24 vertices

vn -1.00 -0.00 0.00
vn -0.87 -0.00 -0.50
vn -0.87 -0.00 -0.50
vn -0.87 -0.00 -0.50
vn -1.00 -0.00 0.00
vn -1.00 -0.00 0.00
vn -0.87 -0.00 -0.50
vn -0.50 -0.00 -0.87
vn -0.50 -0.00 -0.87
vn -0.50 -0.00 -0.87
vn -0.87 -0.00 -0.50
vn -0.87 -0.00 -0.50
vn -0.50 -0.00 -0.87
vn 0.00 -0.00 -1.00
vn 0.00 -0.00 -1.00
vn 0.00 -0.00 -1.00
vn -0.50 -0.00 -0.87
vn -0.50 -0.00 -0.87
vn 0.00 -0.00 -1.00
vn 0.50 0.00 -0.87
vn 0.50 0.00 -0.87
vn 0.50 0.00 -0.87
vn 0.00 -0.00 -1.00
vn 0.00 -0.00 -1.00
vn 0.50 0.00 -0.87
vn 0.87 0.00 -0.50
vn 0.87 0.00 -0.50
vn 0.87 0.00 -0.50
vn 0.50 0.00 -0.87
vn 0.50 0.00 -0.87
vn 0.87 0.00 -0.50
vn 1.00 0.00 -0.00
vn 1.00 0.00 -0.00
vn 1.00 0.00 -0.00
vn 0.87 0.00 -0.50
vn 0.87 0.00 -0.50
vn 1.00 0.00 -0.00
vn 0.87 0.00 0.50
vn 0.87 0.00 0.50
vn 0.87 0.00 0.50
vn 1.00 0.00 -0.00
vn 1.00 0.00 -0.00
vn 0.87 0.00 0.50
vn 0.50 0.00 0.87
vn 0.50 0.00 0.87
vn 0.50 0.00 0.87
vn 0.87 0.00 0.50
vn 0.87 0.00 0.50
vn 0.50 0.00 0.87
vn 0.00 -0.00 1.00
vn 0.00 -0.00 1.00
vn 0.00 -0.00 1.00
vn 0.50 0.00 0.87
vn 0.50 0.00 0.87
vn 0.00 -0.00 1.00
vn -0.50 -0.00 0.87
vn -0.50 -0.00 0.87
vn -0.50 -0.00 0.87
vn 0.00 -0.00 1.00
vn 0.00 -0.00 1.00
vn -0.50 -0.00 0.87
vn -0.87 -0.00 0.50
vn -0.87 -0.00 0.50
vn -0.87 -0.00 0.50
vn -0.50 -0.00 0.87
vn -0.50 -0.00 0.87
vn -0.87 -0.00 0.50
vn -1.00 -0.00 0.00
vn -1.00 -0.00 0.00
vn -1.00 -0.00 0.00
vn -0.87 -0.00 0.50
vn -0.87 -0.00 0.50
vn 0.00 -1.00 -0.00
vn 0.00 -1.00 -0.00
vn 0.00 -1.00 -0.00
vn 0.00 -1.00 -0.00
vn 0.00 -1.00 -0.00
vn 0.00 -1.00 -0.00
vn 0.00 -1.00 -0.00
vn 0.00 -1.00 -0.00
vn 0.00 -1.00 -0.00
vn 0.00 -1.00 -0.00
vn 0.00 -1.00 -0.00
vn 0.00 -1.00 -0.00
vn 0.00 -1.00 -0.00
vn 0.00 -1.00 -0.00
vn 0.00 -1.00 -0.00
vn 0.00 -1.00 -0.00
vn 0.00 -1.00 -0.00
vn 0.00 -1.00 -0.00
vn 0.00 -1.00 -0.00
vn 0.00 -1.00 -0.00
vn 0.00 -1.00 -0.00
vn 0.00 -1.00 -0.00
vn 0.00 -1.00 -0.00
vn 0.00 -1.00 -0.00
vn 0.00 -1.00 -0.00
vn 0.00 -1.00 -0.00
vn 0.00 -1.00 -0.00
vn 0.00 -1.00 -0.00
vn 0.00 -1.00 -0.00
vn 0.00 -1.00 -0.00
vn -0.00 1.00 0.00
vn -0.00 1.00 0.00
vn -0.00 1.00 0.00
vn 0.00 1.00 0.00
vn 0.00 1.00 0.00
vn 0.00 1.00 0.00
vn -0.00 1.00 0.00
vn -0.00 1.00 0.00
vn -0.00 1.00 0.00
vn -0.00 1.00 -0.00
vn -0.00 1.00 -0.00
vn -0.00 1.00 -0.00
vn 0.00 1.00 -0.00
vn 0.00 1.00 -0.00
vn 0.00 1.00 -0.00
vn -0.00 1.00 -0.00
vn -0.00 1.00 -0.00
vn -0.00 1.00 -0.00
vn -0.00 1.00 -0.00
vn -0.00 1.00 -0.00
vn -0.00 1.00 -0.00
vn -0.00 1.00 -0.00
vn -0.00 1.00 -0.00
vn -0.00 1.00 -0.00
vn -0.00 1.00 -0.00
vn -0.00 1.00 -0.00
vn -0.00 1.00 -0.00
vn -0.00 1.00 -0.00
vn -0.00 1.00 -0.00
vn -0.00 1.00 -0.00
# 132 vertex normals

vt 0.67 0.54 0.50
vt 0.75 0.54 0.50
vt 0.75 0.88 0.50
vt 0.67 0.88 0.50
vt 0.83 0.54 0.50
vt 0.83 0.88 0.50
vt 0.54 0.39 0.00
vt 0.91 0.88 0.50
vt 0.01 0.54 0.50
vt 0.01 0.88 0.50
vt 0.09 0.54 0.50
vt 0.09 0.88 0.50
vt 0.17 0.54 0.50
vt 0.17 0.88 0.50
vt 0.25 0.54 0.50
vt 0.25 0.88 0.50
vt 0.34 0.54 0.50
vt 0.34 0.88 0.50
vt 0.42 0.54 0.50
vt 0.42 0.88 0.50
vt 0.50 0.54 0.50
vt 0.50 0.88 0.50
vt 0.58 0.54 0.50
vt 0.58 0.88 0.50
vt 0.62 0.47 0.00
vt 0.73 0.50 0.00
vt 0.83 0.47 0.00
vt 0.91 0.39 0.00
vt 0.94 0.29 0.00
vt 0.91 0.18 0.00
vt 0.83 0.10 0.00
vt 0.73 0.08 0.00
vt 0.62 0.10 0.00
vt 0.54 0.18 0.00
vt 0.52 0.29 0.00
vt 0.06 0.29 0.00
vt 0.09 0.18 0.00
vt 0.17 0.10 0.00
vt 0.27 0.08 0.00
vt 0.38 0.10 0.00
vt 0.46 0.18 0.00
vt 0.48 0.29 0.00
vt 0.46 0.39 0.00
vt 0.38 0.47 0.00
vt 0.27 0.50 0.00
vt 0.17 0.47 0.00
vt 0.09 0.39 0.00
vt 0.91 0.54 0.50
vt 0.91 0.54 0.50
vt 1.00 0.54 0.50
vt 1.00 0.88 0.50
# 51 texture coords

g Cylinder
f 1/1/1 2/2/2 14/3/3 
f 14/3/4 13/4/5 1/1/6 
f 2/2/7 3/5/8 15/6/9 
f 15/6/10 14/3/11 2/2/12 
f 3/5/13 4/48/14 16/8/15 
f 16/8/16 15/6/17 3/5/18 
f 4/49/19 5/50/20 17/51/21 
f 17/51/22 16/8/23 4/49/24 
f 5/9/25 6/11/26 18/12/27 
f 18/12/28 17/10/29 5/9/30 
f 6/11/31 7/13/32 19/14/33 
f 19/14/34 18/12/35 6/11/36 
f 7/13/37 8/15/38 20/16/39 
f 20/16/40 19/14/41 7/13/42 
f 8/15/43 9/17/44 21/18/45 
f 21/18/46 20/16/47 8/15/48 
f 9/17/49 10/19/50 22/20/51 
f 22/20/52 21/18/53 9/17/54 
f 10/19/55 11/21/56 23/22/57 
f 23/22/58 22/20/59 10/19/60 
f 11/21/61 12/23/62 24/24/63 
f 24/24/64 23/22/65 11/21/66 
f 12/23/67 1/1/68 13/4/69 
f 13/4/70 24/24/71 12/23/72 
f 15/25/73 16/26/74 17/27/75 
f 17/27/76 18/28/77 19/29/78 
f 19/29/79 20/30/80 21/31/81 
f 17/27/82 19/29/83 21/31/84 
f 21/31/85 22/32/86 23/33/87 
f 23/33/88 24/34/89 13/35/90 
f 21/31/91 23/33/92 13/35/93 
f 17/27/94 21/31/95 13/35/96 
f 15/25/97 17/27/98 13/35/99 
f 14/7/100 15/25/101 13/35/102 
f 12/37/103 11/38/104 10/39/105 
f 10/39/106 9/40/107 8/41/108 
f 8/41/109 7/42/110 6/43/111 
f 10/39/112 8/41/113 6/43/114 
f 6/43/115 5/44/116 4/45/117 
f 4/45/118 3/46/119 2/47/120 
f 6/43/121 4/45/122 2/47/123 
f 10/39/124 6/43/125 2/47/126 
f 12/37/127 10/39/128 2/47/129 
f 1/36/130 12/37/131 2/47/132 
# 44 faces

