# 3ds Max Wavefront OBJ Exporter v0.97b - (c)2007 guruware
# File Created: 26.01.2013 19:23:04

#
# object Box011
#

v  -0.40 0.00 0.50
v  0.50 0.00 -0.40
v  0.50 1.00 0.50
v  -0.39 0.99 0.50
v  0.50 0.99 -0.39
v  -0.40 0.80 0.50
v  0.50 0.80 -0.40
v  -0.21 1.00 0.50
v  0.50 1.00 -0.21
v  0.08 1.00 0.08
v  0.05 0.45 0.05
v  0.05 0.95 0.05
v  0.23 1.00 0.23
v  0.13 1.00 0.13
v  0.50 1.00 -0.35
v  0.06 0.99 0.06
v  -0.35 1.00 0.50
v  -0.40 0.45 0.50
v  0.05 0.80 0.05
v  0.50 0.45 -0.40
v  0.05 0.00 0.05
v  -0.40 0.95 0.50
v  0.50 0.95 -0.40
v  0.10 1.00 0.50
v  0.50 1.00 0.10
# 25 vertices

vn 0.00 1.00 -0.00
vn 0.00 1.00 -0.00
vn -0.15 0.98 -0.15
vn -0.15 0.98 -0.15
vn -0.23 0.95 -0.23
vn 0.00 1.00 -0.00
vn 0.00 1.00 -0.00
vn 0.00 1.00 -0.00
vn -0.23 0.95 -0.23
vn -0.23 0.95 -0.23
vn -0.15 0.98 -0.15
vn 0.00 1.00 -0.00
vn -0.62 0.49 -0.62
vn -0.55 0.63 -0.55
vn -0.15 0.98 -0.15
vn -0.15 0.98 -0.15
vn -0.23 0.95 -0.23
vn -0.62 0.49 -0.62
vn -0.55 0.63 -0.55
vn -0.62 0.49 -0.62
vn -0.23 0.95 -0.23
vn -0.23 0.95 -0.23
vn -0.15 0.98 -0.15
vn -0.55 0.63 -0.55
vn -0.71 0.00 -0.71
vn -0.71 0.00 -0.71
vn -0.71 0.00 -0.71
vn -0.71 0.00 -0.71
vn -0.71 0.00 -0.71
vn -0.71 0.00 -0.71
vn -0.71 0.00 -0.71
vn -0.71 0.00 -0.71
vn -0.71 0.00 -0.71
vn -0.71 0.00 -0.71
vn -0.71 0.00 -0.71
vn -0.71 0.00 -0.71
vn -0.71 0.00 -0.71
vn -0.71 0.00 -0.71
vn -0.71 0.00 -0.71
vn -0.71 0.00 -0.71
vn -0.71 0.00 -0.71
vn -0.71 0.00 -0.71
vn -0.71 0.00 -0.71
vn -0.71 0.00 -0.71
vn -0.71 0.00 -0.71
vn -0.71 0.00 -0.71
vn -0.71 0.00 -0.71
vn -0.71 0.00 -0.71
vn -0.71 0.00 -0.71
vn -0.70 0.11 -0.70
vn -0.70 0.12 -0.70
vn -0.70 0.12 -0.70
vn -0.71 0.00 -0.71
vn -0.71 0.00 -0.71
vn -0.70 0.11 -0.70
vn -0.62 0.49 -0.62
vn -0.55 0.63 -0.55
vn -0.55 0.63 -0.55
vn -0.70 0.12 -0.70
vn -0.70 0.11 -0.70
vn -0.62 0.49 -0.62
vn -0.70 0.11 -0.70
vn -0.70 0.12 -0.70
vn -0.70 0.12 -0.70
vn -0.55 0.63 -0.55
vn -0.62 0.49 -0.62
vn -0.70 0.11 -0.70
vn -0.71 0.00 -0.71
vn -0.71 0.00 -0.71
vn -0.71 0.00 -0.71
vn -0.70 0.12 -0.70
vn -0.70 0.11 -0.70
vn 0.00 1.00 -0.00
vn 0.00 1.00 -0.00
vn 0.00 1.00 -0.00
vn 0.00 1.00 -0.00
vn 0.00 1.00 -0.00
vn 0.00 1.00 -0.00
vn 0.00 1.00 -0.00
vn 0.00 1.00 -0.00
vn 0.00 1.00 -0.00
vn 0.00 1.00 -0.00
vn 0.00 1.00 -0.00
vn 0.00 1.00 -0.00
vn 0.00 1.00 -0.00
vn 0.00 1.00 -0.00
vn 0.00 1.00 -0.00
vn 0.00 1.00 -0.00
vn 0.00 1.00 -0.00
vn 0.00 1.00 -0.00
# 90 vertex normals

vt 0.94 0.65 0.00
vt 0.06 0.65 0.00
vt 0.01 0.61 0.00
vt 0.99 0.61 0.00
vt 1.00 -0.00 0.00
vt 1.00 0.49 0.00
vt 0.00 0.49 0.00
vt 0.00 -0.00 0.00
vt 0.50 1.00 0.00
vt 0.94 0.65 0.00
vt 0.05 0.65 0.00
vt 0.50 0.63 0.00
vt 0.50 0.27 0.00
vt 0.50 0.58 0.00
vt 0.50 0.77 0.00
vt 0.50 0.65 0.00
vt 0.03 0.63 0.00
vt 0.50 0.61 0.00
vt 0.97 0.63 0.00
vt 1.00 0.27 0.00
vt 0.50 0.49 0.00
vt 0.00 0.27 0.00
vt 0.50 -0.00 0.00
vt 1.00 0.58 0.00
vt 0.00 0.58 0.00
vt 0.72 0.83 0.00
vt 0.27 0.83 0.00
vt 0.50 0.65 0.00
# 28 texture coords

g Box011
f 8/1/1 14/16/2 10/12/3 
f 10/12/4 17/19/5 8/1/6 
f 14/16/7 9/2/8 15/17/9 
f 15/17/10 10/12/11 14/16/12 
f 5/3/13 16/18/14 10/12/15 
f 10/12/16 15/17/17 5/3/18 
f 16/18/19 4/4/20 17/19/21 
f 17/19/22 10/12/23 16/18/24 
f 1/5/25 18/20/26 11/13/27 
f 11/13/28 21/23/29 1/5/30 
f 18/20/31 6/6/32 19/21/33 
f 19/21/34 11/13/35 18/20/36 
f 7/7/37 20/22/38 11/13/39 
f 11/13/40 19/21/41 7/7/42 
f 20/22/43 2/8/44 21/23/45 
f 21/23/46 11/13/47 20/22/48 
f 6/6/49 22/24/50 12/14/51 
f 12/14/52 19/21/53 6/6/54 
f 22/24/55 4/4/56 16/18/57 
f 16/18/58 12/14/59 22/24/60 
f 5/3/61 23/25/62 12/14/63 
f 12/14/64 16/18/65 5/3/66 
f 23/25/67 7/7/68 19/21/69 
f 19/21/70 12/14/71 23/25/72 
f 8/10/73 24/26/74 13/15/75 
f 13/15/76 14/28/77 8/10/78 
f 24/26/79 3/9/80 25/27/81 
f 25/27/82 13/15/83 24/26/84 
f 9/11/85 14/28/86 13/15/87 
f 13/15/88 25/27/89 9/11/90 
# 30 faces

