# 3ds Max Wavefront OBJ Exporter v0.97b - (c)2007 guruware
# File Created: 19.01.2013 22:41:32

#
# object GeoSphere
#

v  -0.00 0.00 0.50
v  0.45 0.00 0.22
v  0.14 0.43 0.22
v  -0.36 0.26 0.22
v  -0.36 -0.26 0.22
v  0.14 -0.43 0.22
v  0.36 0.26 -0.22
v  -0.14 0.43 -0.22
v  -0.45 -0.00 -0.22
v  -0.14 -0.43 -0.22
v  0.36 -0.26 -0.22
v  0.00 0.00 -0.50
v  0.26 0.00 0.43
v  0.08 0.25 0.43
v  -0.21 0.15 0.43
v  -0.21 -0.15 0.43
v  0.08 -0.25 0.43
v  0.34 0.25 0.26
v  -0.13 0.40 0.26
v  -0.43 -0.00 0.26
v  -0.13 -0.40 0.26
v  0.34 -0.25 0.26
v  0.48 0.15 0.00
v  -0.00 0.50 -0.00
v  -0.48 0.15 -0.00
v  -0.29 -0.40 -0.00
v  0.29 -0.40 -0.00
v  0.48 -0.15 0.00
v  0.29 0.40 -0.00
v  -0.29 0.40 -0.00
v  -0.48 -0.15 -0.00
v  0.00 -0.50 -0.00
v  0.13 0.40 -0.26
v  -0.34 0.25 -0.26
v  -0.34 -0.25 -0.26
v  0.13 -0.40 -0.26
v  0.43 0.00 -0.26
v  0.21 0.15 -0.43
v  -0.08 0.25 -0.43
v  -0.26 -0.00 -0.43
v  -0.08 -0.25 -0.43
v  0.21 -0.15 -0.43
# 42 vertices

vn 0.00 0.00 1.00
vn 0.53 0.00 0.85
vn 0.16 0.50 0.85
vn 0.53 0.00 0.85
vn 0.89 0.00 0.45
vn 0.69 0.50 0.53
vn 0.53 0.00 0.85
vn 0.69 0.50 0.53
vn 0.16 0.50 0.85
vn 0.16 0.50 0.85
vn 0.69 0.50 0.53
vn 0.28 0.85 0.45
vn 0.00 0.00 1.00
vn 0.16 0.50 0.85
vn -0.43 0.31 0.85
vn 0.16 0.50 0.85
vn 0.28 0.85 0.45
vn -0.26 0.81 0.53
vn 0.16 0.50 0.85
vn -0.26 0.81 0.53
vn -0.43 0.31 0.85
vn -0.43 0.31 0.85
vn -0.26 0.81 0.53
vn -0.72 0.53 0.45
vn 0.00 0.00 1.00
vn -0.43 0.31 0.85
vn -0.43 -0.31 0.85
vn -0.43 0.31 0.85
vn -0.72 0.53 0.45
vn -0.85 -0.00 0.53
vn -0.43 0.31 0.85
vn -0.85 -0.00 0.53
vn -0.43 -0.31 0.85
vn -0.43 -0.31 0.85
vn -0.85 -0.00 0.53
vn -0.72 -0.53 0.45
vn 0.00 0.00 1.00
vn -0.43 -0.31 0.85
vn 0.16 -0.50 0.85
vn -0.43 -0.31 0.85
vn -0.72 -0.53 0.45
vn -0.26 -0.81 0.53
vn -0.43 -0.31 0.85
vn -0.26 -0.81 0.53
vn 0.16 -0.50 0.85
vn 0.16 -0.50 0.85
vn -0.26 -0.81 0.53
vn 0.28 -0.85 0.45
vn 0.00 0.00 1.00
vn 0.16 -0.50 0.85
vn 0.53 0.00 0.85
vn 0.16 -0.50 0.85
vn 0.28 -0.85 0.45
vn 0.69 -0.50 0.53
vn 0.16 -0.50 0.85
vn 0.69 -0.50 0.53
vn 0.53 0.00 0.85
vn 0.53 0.00 0.85
vn 0.69 -0.50 0.53
vn 0.89 0.00 0.45
vn 0.89 0.00 0.45
vn 0.95 -0.31 -0.00
vn 0.95 0.31 0.00
vn 0.95 -0.31 -0.00
vn 0.72 -0.53 -0.45
vn 0.85 0.00 -0.53
vn 0.95 -0.31 -0.00
vn 0.85 0.00 -0.53
vn 0.95 0.31 0.00
vn 0.95 0.31 0.00
vn 0.85 0.00 -0.53
vn 0.72 0.53 -0.45
vn 0.28 0.85 0.45
vn 0.59 0.81 0.00
vn 0.00 1.00 -0.00
vn 0.59 0.81 0.00
vn 0.72 0.53 -0.45
vn 0.26 0.81 -0.53
vn 0.59 0.81 0.00
vn 0.26 0.81 -0.53
vn 0.00 1.00 -0.00
vn 0.00 1.00 -0.00
vn 0.26 0.81 -0.53
vn -0.28 0.85 -0.45
vn -0.72 0.53 0.45
vn -0.59 0.81 0.00
vn -0.95 0.31 -0.00
vn -0.59 0.81 0.00
vn -0.28 0.85 -0.45
vn -0.69 0.50 -0.53
vn -0.59 0.81 0.00
vn -0.69 0.50 -0.53
vn -0.95 0.31 -0.00
vn -0.95 0.31 -0.00
vn -0.69 0.50 -0.53
vn -0.89 -0.00 -0.45
vn -0.72 -0.53 0.45
vn -0.95 -0.31 -0.00
vn -0.59 -0.81 0.00
vn -0.95 -0.31 -0.00
vn -0.89 -0.00 -0.45
vn -0.69 -0.50 -0.53
vn -0.95 -0.31 -0.00
vn -0.69 -0.50 -0.53
vn -0.59 -0.81 0.00
vn -0.59 -0.81 0.00
vn -0.69 -0.50 -0.53
vn -0.28 -0.85 -0.45
vn 0.28 -0.85 0.45
vn 0.00 -1.00 -0.00
vn 0.59 -0.81 -0.00
vn 0.00 -1.00 -0.00
vn -0.28 -0.85 -0.45
vn 0.26 -0.81 -0.53
vn 0.00 -1.00 -0.00
vn 0.26 -0.81 -0.53
vn 0.59 -0.81 -0.00
vn 0.59 -0.81 -0.00
vn 0.26 -0.81 -0.53
vn 0.72 -0.53 -0.45
vn 0.72 0.53 -0.45
vn 0.59 0.81 0.00
vn 0.95 0.31 0.00
vn 0.59 0.81 0.00
vn 0.28 0.85 0.45
vn 0.69 0.50 0.53
vn 0.59 0.81 0.00
vn 0.69 0.50 0.53
vn 0.95 0.31 0.00
vn 0.95 0.31 0.00
vn 0.69 0.50 0.53
vn 0.89 0.00 0.45
vn -0.28 0.85 -0.45
vn -0.59 0.81 0.00
vn 0.00 1.00 -0.00
vn -0.59 0.81 0.00
vn -0.72 0.53 0.45
vn -0.26 0.81 0.53
vn -0.59 0.81 0.00
vn -0.26 0.81 0.53
vn 0.00 1.00 -0.00
vn 0.00 1.00 -0.00
vn -0.26 0.81 0.53
vn 0.28 0.85 0.45
vn -0.89 -0.00 -0.45
vn -0.95 -0.31 -0.00
vn -0.95 0.31 -0.00
vn -0.95 -0.31 -0.00
vn -0.72 -0.53 0.45
vn -0.85 -0.00 0.53
vn -0.95 -0.31 -0.00
vn -0.85 -0.00 0.53
vn -0.95 0.31 -0.00
vn -0.95 0.31 -0.00
vn -0.85 -0.00 0.53
vn -0.72 0.53 0.45
vn -0.28 -0.85 -0.45
vn 0.00 -1.00 -0.00
vn -0.59 -0.81 0.00
vn 0.00 -1.00 -0.00
vn 0.28 -0.85 0.45
vn -0.26 -0.81 0.53
vn 0.00 -1.00 -0.00
vn -0.26 -0.81 0.53
vn -0.59 -0.81 0.00
vn -0.59 -0.81 0.00
vn -0.26 -0.81 0.53
vn -0.72 -0.53 0.45
vn 0.72 -0.53 -0.45
vn 0.95 -0.31 -0.00
vn 0.59 -0.81 -0.00
vn 0.95 -0.31 -0.00
vn 0.89 0.00 0.45
vn 0.69 -0.50 0.53
vn 0.95 -0.31 -0.00
vn 0.69 -0.50 0.53
vn 0.59 -0.81 -0.00
vn 0.59 -0.81 -0.00
vn 0.69 -0.50 0.53
vn 0.28 -0.85 0.45
vn 0.00 -0.00 -1.00
vn -0.16 0.50 -0.85
vn 0.43 0.31 -0.85
vn -0.16 0.50 -0.85
vn -0.28 0.85 -0.45
vn 0.26 0.81 -0.53
vn -0.16 0.50 -0.85
vn 0.26 0.81 -0.53
vn 0.43 0.31 -0.85
vn 0.43 0.31 -0.85
vn 0.26 0.81 -0.53
vn 0.72 0.53 -0.45
vn 0.00 -0.00 -1.00
vn -0.53 -0.00 -0.85
vn -0.16 0.50 -0.85
vn -0.53 -0.00 -0.85
vn -0.89 -0.00 -0.45
vn -0.69 0.50 -0.53
vn -0.53 -0.00 -0.85
vn -0.69 0.50 -0.53
vn -0.16 0.50 -0.85
vn -0.16 0.50 -0.85
vn -0.69 0.50 -0.53
vn -0.28 0.85 -0.45
vn 0.00 -0.00 -1.00
vn -0.16 -0.50 -0.85
vn -0.53 -0.00 -0.85
vn -0.16 -0.50 -0.85
vn -0.28 -0.85 -0.45
vn -0.69 -0.50 -0.53
vn -0.16 -0.50 -0.85
vn -0.69 -0.50 -0.53
vn -0.53 -0.00 -0.85
vn -0.53 -0.00 -0.85
vn -0.69 -0.50 -0.53
vn -0.89 -0.00 -0.45
vn 0.00 -0.00 -1.00
vn 0.43 -0.31 -0.85
vn -0.16 -0.50 -0.85
vn 0.43 -0.31 -0.85
vn 0.72 -0.53 -0.45
vn 0.26 -0.81 -0.53
vn 0.43 -0.31 -0.85
vn 0.26 -0.81 -0.53
vn -0.16 -0.50 -0.85
vn -0.16 -0.50 -0.85
vn 0.26 -0.81 -0.53
vn -0.28 -0.85 -0.45
vn 0.00 -0.00 -1.00
vn 0.43 0.31 -0.85
vn 0.43 -0.31 -0.85
vn 0.43 0.31 -0.85
vn 0.72 0.53 -0.45
vn 0.85 0.00 -0.53
vn 0.43 0.31 -0.85
vn 0.85 0.00 -0.53
vn 0.43 -0.31 -0.85
vn 0.43 -0.31 -0.85
vn 0.85 0.00 -0.53
vn 0.72 -0.53 -0.45
# 240 vertex normals

vt 0.40 1.00 0.50
vt 0.50 0.65 0.50
vt 0.70 0.65 0.50
vt 0.90 0.65 0.50
vt 0.10 0.65 0.50
vt 0.30 0.65 0.50
vt 0.60 0.35 0.50
vt 0.80 0.35 0.50
vt 0.00 0.35 0.50
vt 0.20 0.35 0.50
vt 0.40 0.35 0.50
vt 0.50 0.00 0.50
vt 0.50 0.82 0.50
vt 0.70 0.82 0.50
vt 0.90 0.82 0.50
vt 0.10 0.82 0.50
vt 0.30 0.82 0.50
vt 0.60 0.68 0.50
vt 0.80 0.68 0.50
vt 0.00 0.68 0.50
vt 0.20 0.68 0.50
vt 0.40 0.68 0.50
vt 0.55 0.50 0.50
vt 0.75 0.50 0.50
vt 0.95 0.50 0.50
vt 0.15 0.50 0.50
vt 0.35 0.50 0.50
vt 0.45 0.50 0.50
vt 0.65 0.50 0.50
vt 0.85 0.50 0.50
vt 0.05 0.50 0.50
vt 0.25 0.50 0.50
vt 0.70 0.32 0.50
vt 0.90 0.32 0.50
vt 0.10 0.32 0.50
vt 0.30 0.32 0.50
vt 0.50 0.32 0.50
vt 0.60 0.18 0.50
vt 0.80 0.18 0.50
vt 0.00 0.18 0.50
vt 0.20 0.18 0.50
vt 0.40 0.18 0.50
vt 0.60 1.00 0.50
vt 0.80 1.00 0.50
vt 0.00 1.00 0.50
vt -0.10 0.82 0.50
vt -0.10 0.82 0.50
vt -0.10 0.65 0.50
vt -0.10 0.82 0.50
vt 0.20 1.00 0.50
vt -0.05 0.50 0.50
vt -0.10 0.32 0.50
vt -0.05 0.50 0.50
vt -0.05 0.50 0.50
vt -0.05 0.50 0.50
vt -0.10 0.65 0.50
vt 0.70 0.00 0.50
vt -0.10 0.00 0.50
vt -0.20 0.18 0.50
vt -0.10 0.32 0.50
vt -0.10 0.32 0.50
vt -0.20 0.18 0.50
vt 0.10 0.00 0.50
vt 0.30 0.00 0.50
# 64 texture coords

g GeoSphere
f 1/43/1 13/13/2 14/14/3 
f 13/13/4 2/2/5 18/18/6 
f 13/13/7 18/18/8 14/14/9 
f 14/14/10 18/18/11 3/3/12 
f 1/44/13 14/14/14 15/15/15 
f 14/14/16 3/3/17 19/19/18 
f 14/14/19 19/19/20 15/15/21 
f 15/15/22 19/19/23 4/4/24 
f 1/45/25 15/46/26 16/16/27 
f 15/47/28 4/48/29 20/20/30 
f 15/49/31 20/20/32 16/16/33 
f 16/16/34 20/20/35 5/5/36 
f 1/50/37 16/16/38 17/17/39 
f 16/16/40 5/5/41 21/21/42 
f 16/16/43 21/21/44 17/17/45 
f 17/17/46 21/21/47 6/6/48 
f 1/1/49 17/17/50 13/13/51 
f 17/17/52 6/6/53 22/22/54 
f 17/17/55 22/22/56 13/13/57 
f 13/13/58 22/22/59 2/2/60 
f 2/2/61 28/28/62 23/23/63 
f 28/28/64 11/11/65 37/37/66 
f 28/28/67 37/37/68 23/23/69 
f 23/23/70 37/37/71 7/7/72 
f 3/3/73 29/29/74 24/24/75 
f 29/29/76 7/7/77 33/33/78 
f 29/29/79 33/33/80 24/24/81 
f 24/24/82 33/33/83 8/8/84 
f 4/4/85 30/30/86 25/25/87 
f 30/30/88 8/8/89 34/34/90 
f 30/30/91 34/34/92 25/25/93 
f 25/51/94 34/52/95 9/9/96 
f 5/5/97 31/31/98 26/26/99 
f 31/31/100 9/9/101 35/35/102 
f 31/31/103 35/35/104 26/26/105 
f 26/26/106 35/35/107 10/10/108 
f 6/6/109 32/32/110 27/27/111 
f 32/32/112 10/10/113 36/36/114 
f 32/32/115 36/36/116 27/27/117 
f 27/27/118 36/36/119 11/11/120 
f 7/7/121 29/29/122 23/23/123 
f 29/29/124 3/3/125 18/18/126 
f 29/29/127 18/18/128 23/23/129 
f 23/23/130 18/18/131 2/2/132 
f 8/8/133 30/30/134 24/24/135 
f 30/30/136 4/4/137 19/19/138 
f 30/30/139 19/19/140 24/24/141 
f 24/24/142 19/19/143 3/3/144 
f 9/9/145 31/31/146 25/53/147 
f 31/31/148 5/5/149 20/20/150 
f 31/31/151 20/20/152 25/54/153 
f 25/55/154 20/20/155 4/56/156 
f 10/10/157 32/32/158 26/26/159 
f 32/32/160 6/6/161 21/21/162 
f 32/32/163 21/21/164 26/26/165 
f 26/26/166 21/21/167 5/5/168 
f 11/11/169 28/28/170 27/27/171 
f 28/28/172 2/2/173 22/22/174 
f 28/28/175 22/22/176 27/27/177 
f 27/27/178 22/22/179 6/6/180 
f 12/57/181 39/39/182 38/38/183 
f 39/39/184 8/8/185 33/33/186 
f 39/39/187 33/33/188 38/38/189 
f 38/38/190 33/33/191 7/7/192 
f 12/58/193 40/40/194 39/59/195 
f 40/40/196 9/9/197 34/60/198 
f 40/40/199 34/61/200 39/62/201 
f 39/39/202 34/34/203 8/8/204 
f 12/63/205 41/41/206 40/40/207 
f 41/41/208 10/10/209 35/35/210 
f 41/41/211 35/35/212 40/40/213 
f 40/40/214 35/35/215 9/9/216 
f 12/64/217 42/42/218 41/41/219 
f 42/42/220 11/11/221 36/36/222 
f 42/42/223 36/36/224 41/41/225 
f 41/41/226 36/36/227 10/10/228 
f 12/12/229 38/38/230 42/42/231 
f 38/38/232 7/7/233 37/37/234 
f 38/38/235 37/37/236 42/42/237 
f 42/42/238 37/37/239 11/11/240 
# 80 faces

