# 3ds Max Wavefront OBJ Exporter v0.97b - (c)2007 guruware
# File Created: 29.01.2013 02:23:08

#
# object wall
#

v  0.00 0.00 -0.50
v  0.00 0.00 -0.00
v  0.00 1.00 -0.50
v  0.00 1.00 -0.00
v  0.00 0.20 -0.50
v  0.00 0.20 -0.00
v  0.00 0.40 -0.50
v  0.00 0.40 -0.00
v  0.00 0.60 -0.50
v  0.00 0.60 -0.00
v  0.00 0.80 -0.50
v  0.00 0.80 -0.00
v  0.00 0.00 0.50
v  0.50 1.00 -0.50
v  0.50 1.00 -0.00
v  0.50 1.00 0.50
v  0.00 1.00 0.50
v  0.00 0.20 0.50
v  0.00 0.40 0.50
v  0.00 0.60 0.50
v  0.00 0.80 0.50
# 21 vertices

vn 0.00 1.00 -0.00
vn 0.00 1.00 -0.00
vn 0.00 1.00 -0.00
vn 0.00 1.00 -0.00
vn 0.00 1.00 -0.00
vn 0.00 1.00 -0.00
vn 0.00 1.00 -0.00
vn 0.00 1.00 -0.00
vn 0.00 1.00 -0.00
vn 0.00 1.00 -0.00
vn 0.00 1.00 -0.00
vn 0.00 1.00 -0.00
vn -1.00 0.00 0.00
vn -1.00 0.00 0.00
vn -1.00 0.00 0.00
vn -1.00 0.00 0.00
vn -1.00 0.00 0.00
vn -1.00 0.00 0.00
vn -1.00 0.00 0.00
vn -1.00 0.00 0.00
vn -1.00 0.00 0.00
vn -1.00 0.00 0.00
vn -1.00 0.00 0.00
vn -1.00 0.00 0.00
vn -1.00 0.00 0.00
vn -1.00 0.00 0.00
vn -1.00 0.00 0.00
vn -1.00 0.00 0.00
vn -1.00 0.00 0.00
vn -1.00 0.00 0.00
vn -1.00 0.00 0.00
vn -1.00 0.00 0.00
vn -1.00 0.00 0.00
vn -1.00 0.00 0.00
vn -1.00 0.00 0.00
vn -1.00 0.00 0.00
vn -1.00 0.00 0.00
vn -1.00 0.00 0.00
vn -1.00 0.00 0.00
vn -1.00 0.00 0.00
vn -1.00 0.00 0.00
vn -1.00 0.00 0.00
vn -1.00 0.00 0.00
vn -1.00 0.00 0.00
vn -1.00 0.00 0.00
vn -1.00 0.00 0.00
vn -1.00 0.00 0.00
vn -1.00 0.00 0.00
vn -1.00 0.00 0.00
vn -1.00 0.00 0.00
vn -1.00 -0.00 0.00
vn -1.00 -0.00 0.00
vn -1.00 -0.00 0.00
vn -1.00 0.00 0.00
vn -1.00 0.00 0.00
vn -1.00 0.00 0.00
vn -1.00 -0.00 0.00
vn -1.00 -0.00 0.00
vn -1.00 -0.00 0.00
vn -1.00 0.00 0.00
vn -1.00 -0.00 0.00
vn -1.00 -0.00 0.00
vn -1.00 -0.00 0.00
vn -1.00 -0.00 0.00
vn -1.00 -0.00 0.00
vn -1.00 -0.00 0.00
vn -1.00 -0.00 0.00
vn -1.00 -0.00 0.00
vn -1.00 -0.00 0.00
vn -1.00 -0.00 0.00
vn -1.00 -0.00 0.00
vn -1.00 -0.00 0.00
# 72 vertex normals

vt 0.92 0.33 0.00
vt 0.92 0.50 0.00
vt 0.33 0.00 0.00
vt 0.50 0.00 0.00
vt 0.33 0.20 0.00
vt 0.50 0.20 0.00
vt 0.33 0.40 0.00
vt 0.50 0.40 0.00
vt 0.33 0.60 0.00
vt 0.50 0.60 0.00
vt 0.33 0.80 0.00
vt 0.50 0.80 0.00
vt 0.33 1.00 0.00
vt 0.50 1.00 0.00
vt 0.67 0.00 0.00
vt 0.67 0.33 0.00
vt 0.67 0.50 0.00
vt 0.67 0.67 0.00
vt 0.92 0.67 0.00
vt 0.67 1.00 0.00
vt 0.67 0.20 0.00
vt 0.67 0.40 0.00
vt 0.67 0.60 0.00
vt 0.67 0.80 0.00
# 24 texture coords

g wall
f -8/-9/-72 -19/-24/-71 -18/-23/-70 
f -18/-23/-69 -7/-8/-68 -8/-9/-67 
f -7/-8/-66 -18/-23/-65 -5/-6/-64 
f -5/-6/-63 -6/-7/-62 -7/-8/-61 
f -21/-22/-60 -20/-21/-59 -16/-19/-58 
f -16/-19/-57 -17/-20/-56 -21/-22/-55 
f -20/-21/-54 -9/-10/-53 -4/-4/-52 
f -4/-4/-51 -16/-19/-50 -20/-21/-49 
f -17/-20/-48 -16/-19/-47 -14/-17/-46 
f -14/-17/-45 -15/-18/-44 -17/-20/-43 
f -16/-19/-42 -4/-4/-41 -3/-3/-40 
f -3/-3/-39 -14/-17/-38 -16/-19/-37 
f -15/-18/-36 -14/-17/-35 -12/-15/-34 
f -12/-15/-33 -13/-16/-32 -15/-18/-31 
f -14/-17/-30 -3/-3/-29 -2/-2/-28 
f -2/-2/-27 -12/-15/-26 -14/-17/-25 
f -13/-16/-24 -12/-15/-23 -10/-13/-22 
f -10/-13/-21 -11/-14/-20 -13/-16/-19 
f -12/-15/-18 -2/-2/-17 -1/-1/-16 
f -1/-1/-15 -10/-13/-14 -12/-15/-13 
f -11/-14/-12 -10/-13/-11 -18/-11/-10 
f -18/-11/-9 -19/-12/-8 -11/-14/-7 
f -10/-13/-6 -1/-1/-5 -5/-5/-4 
f -5/-5/-3 -18/-11/-2 -10/-13/-1 
# 24 faces

